<svg width="100" height="125" viewBox="0 0 100 125" fill="none" xmlns="http://www.w3.org/2000/svg">
<path d="M50 30.1999C42.1 30.1999 35.6 23.6999 35.6 15.7999C35.6 7.8999 42.1 1.3999 50 1.3999C57.9 1.3999 64.4 7.8999 64.4 15.7999C64.4 23.6999 57.9 30.1999 50 30.1999ZM50 4.3999C43.7 4.3999 38.6 9.4999 38.6 15.7999C38.6 22.0999 43.7 27.1999 50 27.1999C56.3 27.1999 61.4 22.0999 61.4 15.7999C61.4 9.4999 56.3 4.3999 50 4.3999Z" fill="#FA8BAC"/>
<path d="M61.4 97.0999H58.4V74.4H59.9C62.6 74.4 64.8 72.2 64.8 69.5V40.5C64.8 37.8 62.6 35.5999 59.9 35.5999H40.0999C37.3999 35.5999 35.2 37.8 35.2 40.5V69.5C35.2 72.2 37.3999 74.4 40.0999 74.4H41.5999V97H38.5999V77.3C34.9999 76.6 32.2 73.3999 32.2 69.5999V40.5999C32.2 36.1999 35.6999 32.7 40.0999 32.7H59.7999C64.1999 32.7 67.6999 36.1999 67.6999 40.5999V69.5999C67.6999 73.3999 64.8999 76.6 61.2999 77.3V97.0999H61.4Z" fill="#FA8BAC"/>
<path d="M16.4 41.7999C10.2 41.7999 5.19995 36.7999 5.19995 30.5999C5.19995 24.3999 10.2 19.3999 16.4 19.3999C22.6 19.3999 27.6 24.3999 27.6 30.5999C27.6 36.7999 22.6 41.7999 16.4 41.7999ZM16.4 22.3999C11.9 22.3999 8.19995 26.0999 8.19995 30.5999C8.19995 35.0999 11.9 38.7999 16.4 38.7999C20.9 38.7999 24.6 35.0999 24.6 30.5999C24.6 26.0999 21 22.3999 16.4 22.3999Z" fill="#FA8BAC"/>
<path d="M25.4 91.7999H22.4V74.3999H23.9C25.6999 74.3999 27.2 72.8999 27.2 71.0999V49.1999C27.2 47.3999 25.6999 45.8999 23.9 45.8999H8.99995C7.19995 45.8999 5.69995 47.3999 5.69995 49.1999V71.0999C5.69995 72.8999 7.19995 74.3999 8.99995 74.3999H10.5V91.7999H7.49995V77.1999C4.69995 76.4999 2.69995 73.9999 2.69995 71.0999V49.1999C2.69995 45.6999 5.49995 42.8999 8.99995 42.8999H23.7999C27.2999 42.8999 30.1 45.6999 30.1 49.1999V71.0999C30.1 74.0999 28 76.5999 25.2999 77.1999V91.7999H25.4Z" fill="#FA8BAC"/>
<path d="M83.5999 42.2999C77.3999 42.2999 72.3999 37.2999 72.3999 31.0999C72.3999 24.8999 77.3999 19.8999 83.5999 19.8999C89.7999 19.8999 94.7999 24.8999 94.7999 31.0999C94.7999 37.1999 89.7999 42.2999 83.5999 42.2999ZM83.5999 22.7999C79.0999 22.7999 75.3999 26.4999 75.3999 30.9999C75.3999 35.4999 79.0999 39.1999 83.5999 39.1999C88.0999 39.1999 91.7999 35.4999 91.7999 30.9999C91.7999 26.4999 88.0999 22.7999 83.5999 22.7999Z" fill="#FA8BAC"/>
<path d="M92.4999 92.2999H89.4999V74.8999H90.9999C92.7999 74.8999 94.2999 73.3999 94.2999 71.5999V49.6999C94.2999 47.8999 92.7999 46.3999 90.9999 46.3999H76.0999C74.2999 46.3999 72.7999 47.8999 72.7999 49.6999V71.5999C72.7999 73.3999 74.2999 74.8999 76.0999 74.8999H77.5999V92.2999H74.5999V77.6999C71.7999 76.9999 69.7999 74.4999 69.7999 71.5999V49.6999C69.7999 46.1999 72.5999 43.3999 76.0999 43.3999H90.9999C94.4999 43.3999 97.2999 46.1999 97.2999 49.6999V71.5999C97.2999 74.5999 95.1999 77.0999 92.4999 77.6999V92.2999Z" fill="#FA8BAC"/>
</svg>
