<?xml version="1.0" encoding="utf-8"?>
<!-- Generator: Adobe Illustrator 24.1.0, SVG Export Plug-In . SVG Version: 6.00 Build 0)  -->
<svg version="1.1" id="Layer_1" xmlns="http://www.w3.org/2000/svg" xmlns:xlink="http://www.w3.org/1999/xlink" x="0px" y="0px"
	 viewBox="0 0 281.8 78.2" style="enable-background:new 0 0 281.8 78.2;" xml:space="preserve">
<style type="text/css">
	.st0{fill-rule:evenodd;clip-rule:evenodd;fill:#92CC7C;}
</style>
<g id="Layer_2_1_">
	<g id="Layer_1-2">
		<path class="st0" d="M280.2,31c-2.1-0.1-4.1-0.7-5.9-1.9c-2.6-1.7-5.7-2.3-8.7-1.9c-2.8,0.6-4.2-0.3-6.1-0.6
			c-1.7-0.1-3.2-1.3-3.5-3c-0.1-0.5-0.1-1,0-1.5c-2.1,0-3.8,0-5.6,0c-0.9,0-1.8,0.1-2.6,0.4c-3,2-7.3,1.3-11.1,1.5
			c-1.1-0.1-2.1-0.4-3.2-0.8l6.6-2.2c-0.8-0.1-1-0.1-1.1-0.1c-0.3,0-0.6,0.1-0.9,0.1c-5.3,0.6-10.4,2.4-15.9,0.2
			c-0.6-0.1-1.2-0.1-1.9,0c-2.4,0.6-4.5,0-7.3-0.4l5.5-2.4l-8.2-1.9c1.3-1.9,1.2-2.1-1.3-2.3c-1.6-0.1-3.3-0.1-4.9,0
			c-2.2-0.6-4.6-1.8-5.6-1.5c-2.8,0.7-4.7,0.3-7.4,0c-4.5-0.6-9.2-0.4-13.6,0.7c-3.5,1-7.3,1-10.8,0.2c3.3-1.4,6.9-2.2,10.6-2.2
			c-3.9-0.7-7.9-0.6-11.8,0.4c-1.5,0.3-3.1,0.5-4.7,0.6c-8.6,0.9-17.1,2.3-25.6,4.3c-9.3,2-18.5,4.1-27.8,6.1
			c-2.3,0.4-4.7,0.6-7,0.5c-2.1,0-4.1-0.2-6.2-0.4c-4.7-0.3-9.5-0.9-14.2-1c-5.1,0-10.3-0.7-15.2-2.1c-4.5-1.3-8.7-2.8-12.9-4.3
			c-1.2-0.5-2.3-1.1-3.3-1.8c-1.8-1.1-3.7-2.3-5.4-3.5c-2.5-1.7-4.8-3.5-7.2-5.3c-1.9-1.4-3.7-2.7-5.6-4c-1.3-1-3.1-1.3-4.6-0.7
			c0.2,0.5,0.3,1,0.5,1.5c0.4,1-0.1,1.8-1.8,2.4c-4.1,1.4-4.9,3.7-6,5.9s-1.8,4.7-4,6.6c-1.5,1.3-3.2,2.5-4.1,4.1
			c-1.8,3.3-3.8,6.5-5.8,9.7L0,31.3c0.9,0.4,1.8,0.9,2.7,1.5c0.7,0.6,1.8,1.3,1.7,1.9c-0.2,1.6,0.9,2.9,2.9,4.1
			c1,0.7,1.9,1.5,2.7,2.3c2.9,2.3,5,4.7,9,6.6c2.2,1,4.9,2.1,4.9,4c0,0.4,1.1,0.9,1.9,1c3.5,0.8,6.4,1.8,7.6,3.8
			c0.2,0.3,1,0.6,1.6,0.9c2.8,1.6,5.6,3.2,8.3,4.8c0.5,0.4,1,0.9,1.4,1.4l-3.1,1.2c0.3,2.4,2.5,4.1,6.2,5.4c4.4,1.6,9,2.7,13.7,3.2
			c8,0.9,15.7,2.4,23.7,3.2c8.5,0.8,17.2,1.1,25.8,1.4c7.3,0.3,14.6,0.2,21.9,0.3c1.8,0.2,3.6-0.2,5.2-1c2.6-1.5,6-2.2,9.9-2.1
			c1,0,2-0.2,3.6-0.3c-1.2-0.8-1.7-1.7-3.6-0.9c-0.9,0.4-2,0.4-2.9-0.1c-1.5-0.7-2.6-0.4-4.1,0.2c-3.3,1.3-7,2-10.9,0.5
			c1.3-2,1.8-2.3,4.6-1.4c1.9,0.6,2.8,0.2,3.3-0.5c0.7-1,2.2-1.2,3.8-1.3c3.9-0.2,7.9-0.2,12-0.3l-1.6,2.3c1.5-0.3,2.6-0.4,2.7-0.6
			c1.3-2,4.7-2,7.8-2.2c1.4,0,2.8-0.2,4.1-0.5c4-1.2,8.2-1.8,12.3-1.9c3.7-0.1,7.4-0.5,10.3-1.8c3.8-1.7,7.5-3.5,11.7-5.4
			c-1.3,0.2-2.3,0.2-3,0.4c-3.1,0.7-6.2,1.4-9.1,2.2c-1.9,0.7-4,0.6-5.9-0.3c0.1-1.3,1.7-1.6,3.4-1.9c2.7-0.6,5.3-1.3,4.5-3.1
			l8.3-2.1l-1.7-1.2c1.7-0.4,4.5-0.8,4.5-1.2c0-1.7,2.6-2,5.2-2.8c-2.5-0.1-4,1.3-5.8,0c0.7-0.3,1.3-0.6,2-0.8s2.2-0.4,2.4-0.7
			c0.9-1.8,3.7-2,6.4-2.6c3.7-0.8,6.5-2.1,7.7-4.5c-2.1,0.4-3.7,0.8-5.4,1c-0.8,0.1-1.7,0-2.5-0.3c-1.7-1.2-3.4-0.8-5.4-0.3
			c-4.8,1.3-9.5,2.8-15.4,2.3c-0.9-1.4-0.9-1.4,0.3-1.8c1.2-0.4,2.5-0.8,3.8-1c7.3-0.9,14.5-1.9,22.1-1.2c0.6,0.1,1.2,0.1,1.9,0
			c2.4-0.9,5-0.2,7.5-0.2c2.2,0,4.4,0.2,6.7,0.3c-0.2-0.6-0.4-1-0.5-1.4c5-0.1,7.8,2,11.8,2.6c3-0.7,5.8-1.5,8.9-1.9
			c3.6-0.4,5.4-1.9,7.9-3c1.2-0.5,1.8-1.5,2.9-2.4c5.6,0.6,12,2.1,17.6-0.9L280.2,31z M116.2,32.6c-0.4,0.2-0.7,0.3-1.1,0.3
			c-0.1-0.2-0.3-0.5-0.2-0.5c0.4-0.1,0.8-0.2,1.2-0.3C116.1,32.3,116.3,32.5,116.2,32.6L116.2,32.6z M185.1,49l-0.3-0.3L187,48
			l0.4,0.5L185.1,49z M207.5,44.5c0.6-0.3,1.2-0.5,1.8-0.6c0.1,0,0.8,0.4,0.7,0.5c-0.5,0.4-1.1,0.7-1.6,1
			C208,44.9,207.4,44.5,207.5,44.5L207.5,44.5z M267.6,33.4c3.6-1.7,6.2-1.5,10.7,0.6C274.5,34.5,271.2,33.8,267.6,33.4L267.6,33.4z
			 M214.4,14.5l19.9,0.5c0,0.2,0,0.5,0,0.7c-2.4,0-4.9,0-7.3,0c-2.2-0.1-4.4,0-6.6,0.4C217.7,16.6,216.3,16.2,214.4,14.5L214.4,14.5
			z M267.2,14.8c-0.5,0.3-0.8,0.8-1.5,1c-3.1,0.7-6.4,1.3-9.5,2.1c-1,0.3-1.6,0.9-2.8,1.7l-2.8-0.5C255,16.4,261.5,16,267.2,14.8
			L267.2,14.8z M242.6,17.3l-2.8-1.7l11.7,0.7c0,0.2,0,0.4,0,0.6L242.6,17.3z M193.1,9.3c4-1,7.4-0.7,10.9-0.6
			c0.1,0,0.1,0.2,0.2,0.4C200.7,9.4,197.3,10.1,193.1,9.3z M226.9,19.7l7.1-0.8C232.9,20.5,232.8,20.5,226.9,19.7z M226.1,46.6
			c-3.2,2.1-3.8,2.3-6.1,1.7C221.1,46.7,223.5,46.6,226.1,46.6z M273.7,26.9c1.9-1.1,4-1.7,6.2-1.6
			C278.1,26.9,275.8,26.7,273.7,26.9z M226.3,9.7l-5.5-0.3l0.1-0.5l4.9,0.4c0.2,0,0.4,0,0.4,0.1S226.3,9.6,226.3,9.7z M233.7,44.4
			c1-0.4,2.1-0.7,3.1-1c-0.6,0.9-1.1,1.9-3.4,1.5C233.5,44.7,233.5,44.5,233.7,44.4L233.7,44.4z M256.1,40.4l2.8,0.4
			c-0.1,0.2-0.1,0.4-0.2,0.6l-2.8-0.2C255.9,41,256,40.7,256.1,40.4L256.1,40.4z M234.4,10.6l-0.7-0.2c0.3-0.1,0.6-0.2,0.9-0.3
			c0.1,0,0.4,0.2,0.5,0.3L234.4,10.6z M212.6,50.5l-2.3,0.7l-0.4-0.3c0.3-0.2,0.6-0.4,1-0.5C211.4,50.4,212,50.5,212.6,50.5z
			 M251.7,14.5l-0.7-0.2c0.1-0.1,0.3-0.3,0.4-0.3c0.3,0,0.5,0.1,0.8,0.1L251.7,14.5z"/>
	</g>
</g>
</svg>
