<svg xmlns="http://www.w3.org/2000/svg" viewBox="0 0 1000 186.59"><defs><style>.cls-1{fill:#92cc7c;}</style></defs><g id="Layer_2" data-name="Layer 2"><g id="svg2"><path id="path2987" class="cls-1" d="M847.79,185.58c-1.73-.25-2-1.7-.27-1.69,1.15,0,3,1.06,3,1.71,0,.34-.24.33-2.72,0Zm24.79-1.33c-.43-.67,1.52-1.66,2.53-1.28a1.26,1.26,0,0,1,.82,1c0,.82-2.86,1-3.35.25ZM851.91,183a3.12,3.12,0,0,1,1.56,0c.5.13.22.25-.64.27s-1.27-.09-.92-.24Zm-564.23,3.09c-.18-.28-.09-.52.2-.52a1.14,1.14,0,0,1,.84.52c.18.28.09.51-.19.52a1.14,1.14,0,0,1-.85-.52ZM852,179.82c0-.4.27-.64.61-.53,1,.3,1.08,1.25.19,1.26A.77.77,0,0,1,852,179.82Zm46.7-1.48c-.62-.39-.5-.49.51-.45a15.76,15.76,0,0,1,2.86.43c1.5.37,1.48.39-.51.45a6.62,6.62,0,0,1-2.86-.43Zm-4.81-.83a2,2,0,0,1,1.3,0c.36.14.07.26-.65.27s-1-.11-.65-.26Zm6.88-.16c0-.24.91-.6,2-.79,3.4-.57,3.18-1.51-.31-1.29a14.47,14.47,0,0,1-4.6-.38,53.81,53.81,0,0,0-5.54-1.43,31.07,31.07,0,0,1-5.44-1.6,13.35,13.35,0,0,0-3.66-1c-3.16-.41-3.47-1.71-.41-1.73,1.44,0,2.23.19,2,.51s.22.56.88.6a20,20,0,0,1,4.57.68,16,16,0,0,0,3.77.67c.5,0,.85.35.78.7-.14.72,5.05,1.77,9.09,1.84,3,.05,4.77,1.25,3.88,2.7-.47.77-1.24,1-3.84,1-1.79,0-3.25-.18-3.25-.43Zm-10.51-.29a22.31,22.31,0,0,0-3.08-.37,12.57,12.57,0,0,1-3.9-.81c-.76-.47-.5-.54,1.39-.34,4.49.48,6.76.88,7,1.26s-1.08.57-1.4.26ZM267.4,179a1.22,1.22,0,0,0-1.35-.25c-.69.22-.91.11-.72-.38.38-1-2.37-2.45-3.66-1.92-1.61.67-2.33.58-2.34-.27a.78.78,0,0,1,.77-.78c.43,0,.78-.24.78-.53s-.35-.51-.78-.51-.78-.22-.78-.49-.94-.41-2.08-.29-2.08,0-2.08-.26a.52.52,0,0,1,.52-.49c.28,0,.51-.58.51-1.3s.22-1.3.51-1.3c.68,0,.65-1.92,0-2.35-.84-.5-2.05.79-2,2.17s-.76,1.63-1.47.37c-.45-.79-.57-.79-1.31,0s-.72.86,0,1.12a3.09,3.09,0,0,1,1.28,1.6c.28.72.84,1.3,1.24,1.3,1.28,0,1.43,1.46.18,1.69s-1.11.22.16.74,1.27.53.19.88a3.8,3.8,0,0,1-1.55.24,4.15,4.15,0,0,0-1.58.28,1.91,1.91,0,0,1-2.21-.66l-1.08-1.05,2.12,0c2.22,0,2.66-1,.69-1.55-1-.25-1.34-1.2-1.34-3.35a3,3,0,0,0-.54-1.66,1.1,1.1,0,0,1-.29-1.07c.14-.23-.07-1-.47-1.7-.54-1-.72-1.07-.73-.38,0,1.15-2.09,1.26-2.09.11,0-.44-.24-.66-.53-.48s-.52.05-.52-.29.43-.5,1-.34,1,.08,1-.15c0-.72-2.86-1-6-.52s-3.83.18-3.86-1.34c0-1.08,1-1.3,2.54-.54,2.15,1.06,2.91.41,2.15-1.85a5.18,5.18,0,0,1-.28-2.65c.19-.51.07-.86-.3-.86-.78,0-3.41,2.07-3.23,2.54.07.18-.1.42-.39.51a.37.37,0,0,1-.52-.38c0-.31-.59-.56-1.3-.56-1.32,0-1.79.8-.69,1.16.39.13.48.72.25,1.66l-.36,1.46-2.4-2.64c-2.31-2.54-3.31-3-5.07-2.3-1.15.45-1,.9.78,2.81,1.58,1.67,1.81,3,.45,2.64a18.63,18.63,0,0,0-2.27-.31c-1.34-.12-1.54-.33-1.42-1.48.2-1.92-1.25-1.24-1.63.77A2.71,2.71,0,0,1,222,165.6a4.19,4.19,0,0,0-1.58,1.3c-1,1.36-4,1.31-4.41-.07-.2-.77,0-1,.71-1,.55,0,1,.22,1,.51s.41.16.9-.26,1.35-1.09,1.89-1.49c1.31-1,.74-2.35-1.27-3.09-1.62-.6-2.16-1.9-.79-1.91s.7-1.63-.85-2.19c-.67-.24-.83,0-.78,1.34s-.16,1.67-1.12,1.82-1.1.42-.89,1.08-.12,1.13-1,1.62c-1.13.61-1.56.58-3.25-.22-1.07-.51-1.65-1-1.3-1.17a1.31,1.31,0,0,0,.64-1.23c0-.66.36-1,1.08-1,1.41,0,1-1.25-.48-1.46-1.22-.17-1.55-1.39-.5-1.82.49-.21.46-.4-.13-.81s-.45-.61.93-.89c1.17-.25,1.55-.53,1.19-.89s-.77-.33-1.27.09a1.74,1.74,0,0,1-1.56.3,9.89,9.89,0,0,0-3.83.62c-3,.92-4.6,1.82-3.31,1.81.36,0,.5.25.31.56s-.51.41-.92,0a2.43,2.43,0,0,0-1.47-.55c-1.09,0-1.91,1.17-1,1.45.41.14.46.42.14.81-.55.67-.15,3.46.49,3.45.22,0,.29.47.14,1a1.53,1.53,0,0,1-2.5.66,7.43,7.43,0,0,1-1.27-2.58c-.4-1.21-.93-2.2-1.18-2.2s-.42-.29-.36-.65a3.52,3.52,0,0,0-.31-1.57c-.55-1.24,1-2.95,2.33-2.6,1.16.29,1.3-.58.44-2.8-.44-1.12-.66-1.27-1-.69a1.19,1.19,0,0,0,.09,1.4c.4.48.36.72-.15.89-6,2-10.84,3-12.48,2.7-.51-.09-.92.08-.92.37s.35.41.78.25c.94-.37,1,.24.14,1.19-.52.57-.52.63,0,.34.73-.42.91.5.19.95a8.86,8.86,0,0,1-3.25-.26c-5.08-1-7-1.06-8.52-.25-1.3.68-1.35.79-.44,1,3,.87,7.15,1.29,8,.81,1.17-.63,3.09-.69,3.1-.08,0,.24,1.17.2,2.61-.09,1.84-.38,2.94-.37,3.76,0,1.05.52,1.06.56.12.46-.78-.09-1,.15-.89.94s-.37,1.25-2.45,2c-3.41,1.25-7.67,1.42-8.49.34s-2.34-1.58-2.81-.78-3.26,1.39-4.44.77c-1.35-.71-2.52.39-2.11,2s-.37,1.6-2.58.47c-2-1-2.93-.95-2.92.28,0,.58-.23,1-.51,1.05s-.53-.54-.53-1.2c0-1.09-.22-1.19-2.21-1.05l-2.84.18c-.35,0-.5.38-.33.81s.11.8-.14.82c-4.43.48-5.95.45-5.76-.14.12-.35.78-.65,1.47-.66,1.29,0,3.57-1.27,3.57-2,0-.21-.66-.39-1.46-.38a3.47,3.47,0,0,1-2-.54A4.86,4.86,0,0,0,149,163c-1.06-.05-1.89-.36-1.89-.71s-.49-.35-1.55.27c-2,1.16-2,1.67.13,1.67h1.69l-1.29,1-1.29,1,1.94-.32c2.36-.39,2.61.45.4,1.38-1.42.6-2.12,1.58-1.14,1.57.23,0,.45.46.5,1s-.22,1-.58,1.05a3,3,0,0,0-1.59,1c-.89,1-.89,1.05,0,1.39.56.22,1,.11,1.15-.25.33-1,1.09-.7,1,.43-.06,1-.31,1-2.43.74a8.19,8.19,0,0,1-2.85-.78,3.56,3.56,0,0,0-2-.44c-2,0-1.82-.83.36-1.56,1-.34,1.81-.83,1.8-1.09s.53-.49,1.17-.49c1.07,0,1-.08-.33-.78a6.83,6.83,0,0,0-2.21-.76c-.39,0-.72-.23-.72-.51s.46-.53,1-.53a.91.91,0,0,0,1-1c0-1.26-2.67-2.18-5.32-1.82a8.05,8.05,0,0,1-3.18-.2c-1.18-.44-1.28-.34-1.59,1.66s-.18,2.27,1.28,3.49c1.66,1.4,1.62,2.07-.12,2.08-.68,0-.91-.24-.72-.76s-.12-.88-.95-1.08-1.15-.58-1-1a.88.88,0,0,0-.33-1c-.42-.26-.41-.56,0-1.11.94-1.15-.86-2.26-2.75-1.71s-1.89-.13-.13-1.3a5.73,5.73,0,0,1,3.31-.75,4.65,4.65,0,0,0,2.87-.61,4.24,4.24,0,0,1,2.63-.61c2.27.18,3.85-.35,3.84-1.28s-1.33-1-1.8-.24c-.18.28-.79.32-1.43.09a4.23,4.23,0,0,0-2.56.15c-1.69.65-2.42.18-1.48-1,.72-.88.72-.89-.79-1.71-1-.52-.94-.6.64-1.17,1.24-.44,1.68-.92,1.67-1.8s-.27-1.19-1.75-1.18a8.73,8.73,0,0,1-3.31-.79c-.86-.44-1.72-.65-1.89-.47s-.33.07-.33-.24c0-.81-5.55-1.39-6.4-.67-.48.4-.85.4-1.23,0s-.47-.15-.29.79c.31,1.57-.57,1.77-2.38.52-1-.7-1.53-.73-3.36-.21a14.79,14.79,0,0,1-2.42.56,5.8,5.8,0,0,0-1.65.47c-1.37.53-4.38-.3-8.3-2.29a8.46,8.46,0,0,0-3.17-.69,5,5,0,0,1-3-1c-1.35-1.16-2.41-1.27-4.45-.48-.94.36-1.59.37-2,0a4.38,4.38,0,0,0-2-.63c-1.44-.11-1.83-.66-.73-1.06.37-.14-.07-.65-1-1.21s-1.69-1.14-1.7-1.35-.49-.39-1.08-.39c-1.44,0-1.18-2.09.35-2.86a12,12,0,0,0,2-1.28c1.16-1,2.33.06,1.38,1.22-1.43,1.75.66,2.39,3.63,1.12,1.29-.55,1.71-1.06,1.75-2.12,0-1.3-.06-1.38-1.61-1.08-1,.2-1.81.09-2-.29s0-.53.74-.33,1.12.05,1.11-.48-.48-.71-2.47-.43a8.18,8.18,0,0,0-2.91.8c-.57.58-2,.07-1.58-.57.18-.29-.26-.35-1-.14s-1.34.12-1.34-.15c0-.59-2.3-1.68-3.51-1.67s-.24.85,1.17,1.16c.95.2,1,.25.12.62-1.44.64-4-.6-3.64-1.81.2-.8,0-1-1.12-1a1.83,1.83,0,0,1-1.69-.8c-.25-.63-.79-.73-2.46-.47s-1.92.19-1.36-.21a5.68,5.68,0,0,1,2.52-.57c1.37,0,1.68-.19,1.42-.83a6.16,6.16,0,0,1-.32-1,8.43,8.43,0,0,0-2.34-.52c-1.75-.25-2.66-.12-3.63.53-1.66,1.1-1.63,1.67.12,2.1.93.22,1.19.47.77.74a1.06,1.06,0,0,0-.3,1.26c.19.49.08.87-.24.87a.55.55,0,0,0-.57.52c0,.29.38.52.85.52.69,0,.72.13.2.77-1,1.23-1.69.93-1.47-.65.26-1.86-.87-3-3.36-3.48-1.6-.28-1.95-.2-1.94.49a.81.81,0,0,1-.78.84c-.43,0-.78-.2-.78-.46s-1-.54-2.34-.64L52,133.93v2c0,1.59-.13,1.89-.67,1.45a2.33,2.33,0,0,0-1.82-.25c-.67.18-1.14.07-1.14-.27s-.47-.58-1-.57c-.81,0-1-.34-1-1.55,0-.88-.29-1.58-.66-1.61s-.06-.25.65-.49c1.06-.37.89-.44-.94-.35-2.79.12-3.8-1-1.83-2,1.43-.76,2.89-.91,3.45-.35a14.36,14.36,0,0,0,5.41,1.67c.64,0,1.16-.23,1.16-.51s.36-.53.8-.53c.63,0,.68-.21.23-1a1.88,1.88,0,0,0-1.29-1c-1.3,0-1.39-1-.23-2.56A4.5,4.5,0,0,1,56.53,124c2-.31,2.2-.45,1.33-.83s-1-.85-.87-2.51c.2-2.25-.13-2.5-1.57-1.19-.88.82-1,.77-1.28-.81-.39-1.88-1.41-2.53-2.51-1.6-.55.46-1,.47-1.81.06-1.35-.72-1.36-1.31,0-2.25.82-.58,1-1.09.7-2.37-.18-.9-.59-1.63-.91-1.63s0-.37.61-.83c.93-.66,1-1,.55-1.56s-.31-.84,1-1.31c.89-.32,1.48-.8,1.3-1.08s.12-.82.64-1.21.84-.78.7-.88l-1.94-1.32c-1.89-1.31-5-1.52-6.12-.42-.6.61-.52.8.53,1.27,1.6.71,2.6,2.46,1.73,3s-4.64.29-5.46-.38a3,3,0,0,0-2.12-.25c-1.06.22-1.61,0-2.05-.65s-4.27-1.94-5.46-1.63c-.22,0-.39-.2-.39-.55,0-.9,5-3.7,6-3.33A2.39,2.39,0,0,0,41,99.28a2.33,2.33,0,0,1,1.85-.44c.51.19.68.09.45-.27-.5-.8.66-1.4,1.37-.71.85.84,4.29.68,5-.23A2.16,2.16,0,0,1,51,96.84a1.23,1.23,0,0,0,1-.79c.33-.86,3.3-1.11,3.3-.28,0,.29-.44.52-1,.53a4.4,4.4,0,0,0-2.19,1L51,98.3,53.36,98c2.75-.33,3.13,0,3.3,3,.07,1.34-.15,2.19-.66,2.48s-.57.53.34,1a2.37,2.37,0,0,0,2.45-.06c.91-.42,1.48-.45,1.72-.1a2.93,2.93,0,0,0,1.26.85c1,.35,1.27,1.4.4,1.4s1.43,1.92,2.89,2.28c1.63.4,4.9-1.05,4.9-2.17,0-.85-1.7-1.7-3.35-1.69-.74,0-1.34-.2-1.34-.45s-.47-.58-1-.72-1-.52-1-.84.46-.57,1-.57,1-.33,1-.73a1.25,1.25,0,0,1,.77-1,1.28,1.28,0,0,0,.78-1.1c0-1-3.27-1.06-4.11,0-1,1.19-2.63,1.42-2.64.36a3.31,3.31,0,0,1,2.68-2.64c.85,0,2.42-1.55,1.64-1.61a16.46,16.46,0,0,1-3.26-.7c-1.4-.43-1-1.31.49-.94.93.24,1,.1.71-1.09s-.16-1.37.48-1.37c1.62,0,.81-.82-1.38-1.38a14.94,14.94,0,0,0-6-.19c-.25,0-.69.73-1,1.54-.43,1.26-.73,1.45-2,1.27s-1.63,0-2.1,1.11-.82,1.28-2.45,1a3.2,3.2,0,0,0-2.74.49c-1.35,1.19-4,1.54-5.11.69-1.36-1-1.71-.94-1.37.33.27,1,.14,1.06-1.28.76a6.22,6.22,0,0,0-3.51.48c-2.57,1.1-2.57,1.09-1.06-.92a6.33,6.33,0,0,0,1.3-2.6c0-1.07,1.21-1.13,2.08-.1.71.84,2.08,1,2.08.31a2.13,2.13,0,0,0-.79-1.09,2,2,0,0,1-.18-3,2.82,2.82,0,0,1,3.3-.16c.71.69,3.06.88,3.27.27A11.7,11.7,0,0,1,44.46,89c.33-.64.1-1.3-.85-2.41a5.63,5.63,0,0,1-1.31-2.16c0-.42-.48-.52-1.43-.3-1.34.32-1.36.29-.44-.44,1.14-.9.87-1.39-2.47-4.49-2.44-2.26-1.7-2.78,1.6-1.13,2.88,1.43,3.75,1.47,3.74.17s2.31-3.14,3.66-2.8c.84.21.93.38.39.77s-.57.53,0,.77.6.34,0,.72c-1,.65.65,2.15,2.41,2.14,1.39,0,3.9-1.93,3.89-3,0-.88,2.68-1.71,4.25-1.3s2.27-.38,3.14-2.79c.4-1.11,1.32-1.19,1.73-.16.22.57.83.68,2.5.44s2.28-.13,2.51.47c.17.43,1.26.94,2.42,1.13s2.12.5,2.12.7.53.4,1.17.44c1.14.07,1.14,0,.16-.67s-.81-.75,1.55-.8c2.56-.06,11.1-1.43,9.49-1.52-.86-.06-1.61-1.55-1.71-3.42a4.1,4.1,0,0,0-1.31-2.2c-1.52-1.4-1.33-1.68,1.39-2.06a6.4,6.4,0,0,1,3.76.54c1.92.94,3.09,1.06,3.08.3,0-.29.35-.52.78-.53s.78-.23.77-.52a.52.52,0,0,1,.53-.52c.29,0,.15.59-.32,1.32-1,1.56-5.91,4-6.64,3.34s-1.33-.58-1.32.09c0,.31.21.42.46.26s.61.09.8.56c.27.7.82.78,3.3.47,2.84-.35,6.81-1.81,6.83-2.5,0-.18-.51-.46-1.15-.62-.91-.24-1-.44-.53-.93s.9-.49,1.9,0a3,3,0,0,0,2,.4c1.06-.41,1.73-.34,1.59.17s.75.58,2-.1c1-.54,1-.59-.3-1.59-1.64-1.27-1.92-3.37-.35-2.54A1.78,1.78,0,0,0,103,61.68c.27-1,2.94-1.5,3-.5,0,.82,1,.6,1.37-.29a2,2,0,0,0-.54-1.72c-1.33-1.45-1.06-1.62,2.13-1.35l3,.26L110.77,57A3.87,3.87,0,0,0,108.92,56a3.66,3.66,0,0,1-1.71-.76c-1-.72-.93-.75.54-.51,2.18.36,4.1-.78,4.22-2.5s1-3.53,1.86-3.52a20.13,20.13,0,0,1,3.49,1.15c3.55,1.41,9.35,1.34,9.35-.12,0-1.09,1.93-2,4.09-2,1.24,0,1.6-.16,1.44-.75a1.41,1.41,0,0,1,1.71-1.69c.66.18.66.13,0-.33s-.67-.74-.18-1.53.45-1.14,0-1.57-.36-.59.3-.59.88-.43.87-1.3c0-1.25,1.46-2,1.62-.79,0,.28.1.7.13.92A9.55,9.55,0,0,0,137.82,42c1.05,1.41,1.21,1.46,3.21.94,2.19-.57,5-.37,4.53.33s2.91,1,6.4.28a18.47,18.47,0,0,1,6.55-.28,10.22,10.22,0,0,0,3.42.15,1.87,1.87,0,0,1,1.49.23,2.69,2.69,0,0,0,2.48-.07,4.85,4.85,0,0,1,2-.49c.28.07.35,0,.15-.24s-.05-.69.34-1.08c.92-.94,1.5-.93,1.14,0s.57,1.26,2.25.82c1.05-.27,1.14-.42.51-.82a10.51,10.51,0,0,0-4-1.77c-.41,0-.6-.24-.41-.53s.83-.4,1.45-.22c1.12.32,1.12.32.08-.48-.57-.45-.92-.83-.78-.84s1.8-.11,3.69-.2c2.4-.11,3.7-.43,4.32-1a3,3,0,0,1,1.61-.9c.41,0,.74-.23.74-.52s-.33-.52-.73-.51-1.21-.81-1.81-1.81l-1.08-1.81,1.41-.07a9.68,9.68,0,0,1,1.92.05c2.13.48,7.08,0,8.49-.88,1.26-.75,1.75-.83,2.24-.34s.45.63-.22.63c-1.17,0-1.63.95-.9,1.82a1.14,1.14,0,0,0,1.48.3c2-1,4.22-1.54,4.23-1s2.5.36,5-.3c.61-.16,2.25-.45,3.63-.65,3.65-.52,4.43-.81,4.13-1.57-.21-.53.39-.62,2.68-.44a9.73,9.73,0,0,0,5.54-.91,18.37,18.37,0,0,1,6.83-1.34c4.79-.22,5.72-.54,4.79-1.65-.5-.58-.4-.73.49-.73,1.39,0,1.42-.84,0-1.56a1.94,1.94,0,0,1-1-1.37c0-.65.36-.75,1.78-.49,1,.18,1.91.09,2.1-.22s0-.57-.35-.61.37-.24,1.65-.45l2.33-.38-2.43-.06c-1.34,0-2.58.17-2.75.46a1.16,1.16,0,0,1-.87.52c-.3,0,1-1.5,2.86-3.35,2.33-2.29,3.31-3.61,3.09-4.17-.34-.89-.21-.91,5.16-1,1.69,0,3.18.2,3.38.52A4.79,4.79,0,0,0,244,13c1.22.46,1.38.67.77,1.06s-.65.49.05.49a2.2,2.2,0,0,0,1.37-.58c.42-.42,1-.42,2.31,0,1.9.61,2.87.55,2.62-.16-.08-.25.44-.34,1.16-.21.95.18,1.39,0,1.6-.7s.48-.86,1.7-.34a5.7,5.7,0,0,1,1.74,1.08,1.06,1.06,0,0,0,1.17.15c.74-.29,1.05-2.11.94-5.38,0-.33.29-.49.66-.35a11.49,11.49,0,0,0,3.63-.37c2.15-.46,3-.9,3.2-1.62s.76-1,2.65-1.08a30.28,30.28,0,0,0,6.76-.77c1.29-.3,1.67-.25,1.4.19s-.13.6.15.59a1.12,1.12,0,0,0,.84-.52A1.77,1.77,0,0,1,280,4c.66,0,.91.22.67.6s0,.5.88.25c3.38-.95,8.17-1.53,9-1.08s.27.75-2.27,1.91c-1.73.79-3,1.66-2.83,1.93.45.74,3.4.6,6.81-.32a23.35,23.35,0,0,1,4.31-.79c1.25,0,1.27,0,.33.76a15.9,15.9,0,0,1-3.62,1.63c-4,1.32-4.24,2-.56,1.48a40.39,40.39,0,0,1,5.71-.39,23.41,23.41,0,0,0,5.39-.68c2.6-.69,2.9-.68,4.05.21s1.18,1,.32,1.56-.71.55.5.29c.78-.17,2.47-.47,3.75-.65,2-.29,2.34-.5,2.33-1.6S315,7.83,316.45,8c1.19.1,1.75.45,1.89,1.17s0,.9-.51.47a7.69,7.69,0,0,0-1.6-.86c-.77-.26-.82-.12-.38,1a2,2,0,0,1,0,1.94,1.16,1.16,0,0,0-.06,1.31c.37.58.93.59,3.22.06,1.52-.36,3.47-.77,4.32-.92a12.32,12.32,0,0,0,2.59-.76c.57-.26,1.68-.71,2.46-1,1.2-.44,1.42-.83,1.41-2.41s-.25-1.94-1.05-2.14c-1.53-.39-1.28-.92.9-1.9,2.74-1.24,6.56-1.88,7.64-1.29.8.44.75.59-.49,1.42-1.05.7-1.2,1-.62,1.21a3.88,3.88,0,0,0,1.94,0c.81-.22,1.05-.13.8.29-.52.86,1.26.76,3.5-.2a5.57,5.57,0,0,0,2.4-1.83c.73-1.38,1.65-1.32,3,.19.88,1,1.81,1.31,4.65,1.58a46.14,46.14,0,0,1,5.62.86,26.5,26.5,0,0,0,5.59.46c1.92,0,3.5.13,3.5.38,0,.49-1.53.88-5.44,1.37-2.88.36-6,1.33-5.95,1.87,0,.2-.49.49-1.09.65s-1,.6-.86,1c.32.94,5,1,6.82.08a2.93,2.93,0,0,1,2-.41c.31.19.39.08.18-.25s.19-.71,1.08-.91a34.41,34.41,0,0,0,3.53-1.07c2.46-.89,3.41-1,2.32-.19-.57.41-.24.46,1.28.19a4.71,4.71,0,0,0,2.77-1.39,1.43,1.43,0,0,1,1.51-.73,1.69,1.69,0,0,0,1.5-.3,2.23,2.23,0,0,1,1.74-.33c.58.15,1.05.11,1-.09,0-1,15.58-2.15,19.46-1.47a27.26,27.26,0,0,0,5.7-.22A18.41,18.41,0,0,1,410,4.69c1,.4,1,.4,0,.5a8.54,8.54,0,0,1-1.43,0c-.5-.08-.48.54,0,1.36s5.22,2.21,5.57,1.64,5.95-.61,6-.07c0,.22.53.65,1.17,1l1.17.55-1.3.13a10,10,0,0,0-3.88.85,23.87,23.87,0,0,1-4.9.94c-3.53.34-5,1.07-3.43,1.67a9.55,9.55,0,0,0,3.85-.49c1.83-.53,3.12-.66,3.43-.36s.25.49-.16.49-.52.22-.36.48c.61,1,31.86-.24,35.83-1.38a12.78,12.78,0,0,1,3.81-.46,2.34,2.34,0,0,0,2.43-.87c.62-.9,1.43-1,7.31-1.16a57.35,57.35,0,0,0,7-.41,41.22,41.22,0,0,1,6-.35,38.12,38.12,0,0,0,6.74-.53c.64-.23,1.28-.21,1.44,0,.34.54,3.12.26,5.13-.52.75-.29,1.36-.36,1.36-.15,0,.4,5.78.26,10.25-.26,1.92-.22,2.72-.13,2.72.31s.44.5,1,.34,1,0,1,.51.35.69,1.35.44,1.22-.16,1,.19a2,2,0,0,1-1.54.55,2.72,2.72,0,0,0-1.84.79,4,4,0,0,1-2.68.8c-1.23,0-1.92.22-1.72.53s0,.52-.49.52-.8.25-.8.54c0,.48,1.07.37,3.82-.4a1.31,1.31,0,0,1,1.41.43c.37.58.84.56,2.79-.16s2.44-.73,2.89-.19c.66.78,7.77.94,7.77.17,0-.28-.53-.53-1.17-.55-1.12,0-1.11-.06.13-.44,1.06-.32,18.68-.44,45.4-.3a24.89,24.89,0,0,0,6.06-.52c.83-.33,1.46-.36,1.56-.07s2,.52,4.19.56a14.16,14.16,0,0,1,4,.37c0,.17,1.93.24,4.29.18a38.29,38.29,0,0,1,7.56.59,40,40,0,0,0,7.27.7,68.24,68.24,0,0,1,8.66.69c2.58.39,6.43.84,8.57,1s5.42.49,7.28.77c8.28,1.23,21.83,2.36,21.29,1.77s-9.23-2.33-14-2.84c-4.21-.45-30.94-2.76-33.23-2.87-2-.1-6.26-.91-6.61-1.26s1.09-.24,2.92-.07c4.65.45,28.09.33,29.5-.14.91-.31,1.1-.23.86.4s.47.78,5.71.59c3.31-.11,6,0,6,.24s.37.44.82.44.67.21.51.47c-.39.64,2.53,1.23,5.49,1.11,1.55-.06,2.62.17,3,.65s2.15.74,7.89.68a49.63,49.63,0,0,1,7.57.24c.18.17-1.47.35-3.66.41-4.61.1-4.83.12-5.22.53-.17.16,1,.34,2.64.4a16.65,16.65,0,0,1,4.71.82c2.35,1,9.71,1.91,15.2,1.95a19.27,19.27,0,0,1,5.5.62c.61.33,3.76.72,7,.87,9.6.45,15.82,1.11,18.22,1.93s7.69,1,7.69.26c0-.27-.42-.59-.92-.71-.85-.22-.85-.24,0-.3a1.29,1.29,0,0,1,1.24.75c.23.59.43.65.7.21s1.07-.48,3.38,0a16.54,16.54,0,0,0,4.74.32c.94-.16,1.83-.12,2,.1.38.61,5.36.65,5.73,0,.18-.3.09-.54-.22-.54s-.55-.35-.55-.78c0-1,1.76-1,2.63,0,.55.66.56.89,0,1.23s.24.43,1.59.46a25.8,25.8,0,0,1,3.56.3,60.36,60.36,0,0,0,6.61.26c2.92,0,5.43.2,5.58.43s.74.31,1.31.16a2.28,2.28,0,0,1,1.81.34,5,5,0,0,0,3.11.38c1.29-.14,2.35-.05,2.35.19s.37.44.81.44.66-.25.43-.6c-.53-.85,2.33-.24,6,1.27a48.9,48.9,0,0,0,5,1.78c2.7.72,9.54,1.07,8.38.43s-1.05-1.55.31-1.37c.73.1,1.15.5,1.11,1.06-.08,1,2.17,1.62,4.9,1.32,2.12-.24,1.5-1.4-.83-1.56-1.48-.1-2.49-.93-1.16-.94.29,0,.52-.32.52-.72a1.21,1.21,0,0,1,.77-1c.49-.19.78,0,.78.53,0,.69.41.77,2.39.49,2.63-.38,5,0,4.59.73-.15.25.13,1.15.64,2,.88,1.48,1,1.53,4.58,1.43a13.09,13.09,0,0,1,4.9.56c.76.41,3.75.73,7.67.82,3.54.08,6.9.39,7.48.7a1.29,1.29,0,0,0,1.84-.26c.67-.69.68-.81,0-.81a2.1,2.1,0,0,1-1.37-.73c-.52-.62-.27-.7,1.62-.55,1.23.09,2.64.18,3.12.2s1.29.84,1.78,1.87c1.36,2.81,4.3,3.46,4.36,1,0-.28.22-.2.47.19.37.57.67.5,1.55-.4,1.29-1.3,1.37-1.92.3-2.32-.46-.18-.78,0-.77.42,0,.89-.87,1.22-2.44.93-1.39-.26-1.63-1.05-.29-1,.52,0,.84-.23.76-.63a1.94,1.94,0,0,1,.44-1.43c.33-.4.43-.73.24-.73s0-.36.45-.82a3.28,3.28,0,0,0,.29-3.83c-.76-1.19-.08-1.66,1-.67s2.07,3.56,1.07,2.95c-.43-.26-.52-.19-.26.22.49.78,1.26.17,2.51-2l.93-1.61L833.49,23c-.91,0-1.11-.14-.53-.29.81-.22.75-.38-.44-1.31-.9-.69-1.18-1.22-.84-1.57a1.17,1.17,0,0,0,.27-1.13c-.23-.57,1-1.41,2.93-2,.44-.14,1.09-1.23,1.44-2.43.56-1.91.79-2.14,2-2,1,.11,1.45.49,1.57,1.32s.41,1.11,1.43.84,1.27-.11,1.27.51c0,1.34,1,1,1.6-.59,1-2.75,2.84-2.95,5.11-.56a4.79,4.79,0,0,1,1.61,3.45,4.75,4.75,0,0,0,.9,2.75c.62.67.72,1.08.32,1.33a4.73,4.73,0,0,0-.91,2.44,17.31,17.31,0,0,1-1.19,3.9c-.47,1-.86,1.87-.87,1.93A13,13,0,0,1,847,30l-2.19.37.05-3.83c.09-6-.89-10.46-1.93-8.75a.58.58,0,0,1-.77.27c-.24-.15-1.1.4-1.9,1.21a4,4,0,0,0-1.39,3.52c.09,2.76.66,4.36,1.56,4.36a.76.76,0,0,1,.75.77c0,.43-.22.78-.5.78s-.74.48-1,1.06c-.42.79-.39,1.09.12,1.23,3.47,1,5.09,1.54,5.1,1.8A16.42,16.42,0,0,0,849,34.11c3.6.83,4.08,1.07,3.45,1.7-.44.46-1.93.78-3.84.83-3,.09-3.09.12-2.56,1.27a1.93,1.93,0,0,0,1.76,1.17c.84,0,1.21.29,1.22,1,0,1.13,1.85,1.64,3.58,1,.8-.3,1.76-.13,3.14.56a19.84,19.84,0,0,0,6.71,1.32c3.64.25,4.93.54,5.61,1.29,1.27,1.39.68,1.61-2.71,1-3.78-.67-5.92-.67-5.92,0,0,.29.62.76,1.38,1,2.06.77,1,1.26-2.73,1.3-1.93,0-3.51.29-3.72.63s-1,.47-1.83.32-1.26-.41-.83-.68.19-.4-.61-.38a28,28,0,0,1-4.62-.84c-4.42-1.1-7.13-1.41-7.48-.84s1.73,1.45,3.33,1.31a25.76,25.76,0,0,1,7.53,1.74,4.32,4.32,0,0,0,1.3.42c1.25.19,4.76.63,7,.89A92.23,92.23,0,0,1,868,52a32.29,32.29,0,0,0,4.67.7c1.47.11,3.91.33,5.43.49l2.76.29L880,52.14c-.49-.74-1.1-1.34-1.35-1.33s-.18-.47.17-1c.86-1.39,1.89-1.32,3.73.23.83.71,1.33,1.29,1.11,1.29s-.12.34.23.76a1.27,1.27,0,0,1,.3,1.29c-.18.3.1.54.63.54a2.44,2.44,0,0,1,1.46.46,8.76,8.76,0,0,0,3.1.74c1.43.16,3.18.39,3.89.52,1.37.25,2.91.49,8.06,1.27,1.71.26,4.21.51,5.55.56,2.6.08,4.34.8,3.14,1.3s1.46,2,3.79,2.38c2.68.4,4.43-.52,1.93-1a4.15,4.15,0,0,1-2-.79c-.16-.24-.86-.3-1.55-.12s-1.27.1-1.27-.25a.56.56,0,0,1,.55-.58c.3,0,.4-.24.22-.52s.25-.52,1-.53,1.33.2,1.33.46c0,.52,1.58,1.23,1.94.88.12-.13-.16-.8-.62-1.5-1.15-1.72-.29-2.37,3.62-2.76a17.83,17.83,0,0,0,3.23-.49c.4-.41-5.51-4.61-8-5.72-1.91-.84-2.76-1.53-3-2.46s-.95-1.48-3.33-2.22l-3-.92,2.95-.18,3-.17-.31-1.78c-.22-1.35-.09-1.86.55-2.11,1.07-.42,1.08-2.72,0-3.87a6.79,6.79,0,0,1-1.11-2.89l-.3-2,1.34,1.55a6.43,6.43,0,0,1,1.37,2.1,3.66,3.66,0,0,0,1.19,1.59c.65.57,1.95,1.89,2.89,2.93a6.8,6.8,0,0,0,2.28,1.89c.31,0,.45.45.31,1-.28,1.09,1.32,3.14,2.44,3.13.43,0,.67.59.64,1.59,0,1.44-.18,1.58-1.47,1.4-1.1-.15-1.43,0-1.42.72,0,1.23.92,1.72,1.82,1a1.27,1.27,0,0,1,1.33-.25c.45.27.45.46,0,.75s.05.76,1.28,1.48a11.16,11.16,0,0,0,2.26,1.1c.2,0,.81.58,1.35,1.29A3.24,3.24,0,0,0,929,54.13c.5,0,.31.24-.46.56a6.56,6.56,0,0,1-2.85.31c-2.18-.3-3.89.46-3.89,1.73s-.09,1.16,7.13,1.25c5.09.07,6.57-.31,5.48-1.38-.47-.47-.81-.47-1.34,0s-.94.43-1.66-.09c-2-1.48.33-2.22,5.08-1.58,1.84.25,1.92.33,1.17,1.17-1,1.08-1,2.13-.18,3.91.58,1.25.82,1.31,4.64,1.29,3.51,0,4.08.1,4.36,1A2.32,2.32,0,0,0,948,63.52c.89.22,1.16.57,1,1.28-.28,1.1,2.54,3.42,3.63,3,.5-.21.5-.27,0-.3a.67.67,0,0,1-.66-.62c0-.35.5-.45,1.3-.25s1.3.09,1.29-.22a.52.52,0,0,0-.52-.52c-.28,0-.47-.17-.41-.39a3.47,3.47,0,0,0-.55-1.56c-.59-1-.53-1.21.55-1.63a10.48,10.48,0,0,1,3.73-.21c1.82.2,2.42.11,2.15-.32a2.09,2.09,0,0,0-1.6-.59c-1.56,0-2.86-.48-2.87-1.07s4.51-.62,5.73,0A16,16,0,0,1,963.17,62c1.11,1,1.28,1.4.74,1.74s-.43.52.41.78c1.2.37,1.54,1.77.47,1.92-.35,0-2.68.13-5.16.17-2.85.05-4.76.32-5.16.73s-.1.64,2,.63c3.43,0,7.36,1.67,7.4,3.19,0,.22-1.26.4-2.81.41s-3,.23-3.12.49c-.73,1.22.49,2,4,2.58,6,1,6.08,1,6.09,1.84,0,1.24-1.34,1.44-2.89.44a8.53,8.53,0,0,0-4.34-.93,8.16,8.16,0,0,1-4.2-.9c-1.57-1.09-5.49-1.17-5.88-.13-.25.66,1.55,2.83,2.06,2.5a2.58,2.58,0,0,1,.93-.13c.59,0,.62.24.14,1.34s-.82,1.31-2.8,1.12c-2.44-.25-3,.48-.77,1,.79.17,2.13.5,3,.73,1.48.39,1.5.43.39.78-1.72.54-1.41,1.29.54,1.27a5.78,5.78,0,0,1,2.73.69,9.81,9.81,0,0,0,3.46,1l2.44.25-3-2.15c-1.63-1.19-3.43-2.42-4-2.75-1-.54-.9-.6.61-.62a2.91,2.91,0,0,0,2-.55,3,3,0,0,1,2-.52,116.61,116.61,0,0,1,13.35,2.3l1.3.32-1.55.45a7.43,7.43,0,0,1-3.47,0c-3.2-.84-10.3-1.33-10.28-.72,0,1,4.8,2.74,8.18,3.09,2.27.24,3.25.56,3.25,1.07s.65.72,2.1.71,2.19.25,2.39.76a1.48,1.48,0,0,0,1.34.77,4.93,4.93,0,0,1,2.35,1l1.33,1-2.37,0a5.88,5.88,0,0,0-3,.68c-.8.79-2.37.51-5.64-1s-6.39-1.93-8.8-1.11c-1.74.58-2.3.55-4.38-.29-1.31-.53-2.39-1.23-2.39-1.56s-.71-.84-1.57-1.13c-1.22-.42-1.55-.38-1.55.15a2.24,2.24,0,0,0,.83,1.37c.76.62.76.73,0,1.29-1.37,1,0,1.62,5.43,2.27,2.71.33,5.4.69,6,.8,1.19.24,2.71.43,7.79,1,3.28.37,2.72.45-5.7.78-5.14.21-9.75.17-10.25-.07a4.16,4.16,0,0,0-2.59,0c-1.53.46-1.57.51-.36.54a4.88,4.88,0,0,1,2.34.79,5.69,5.69,0,0,0,2.89.76c1.71,0,1.85.12,1.63,1.31s0,1.29,1.13,1.29a5.31,5.31,0,0,0,2.36-.65c1.66-1,9.78.28,11.48,1.88a4.54,4.54,0,0,0,1.94,1.25c.33,0,.85.46,1.16,1s.72,1,.93,1a6.54,6.54,0,0,1,1.15,0c1,.1-3,1.6-4.27,1.62-.5,0-.85.27-.77.6s-1.27,1-3,1.53-2.56,1-1.91,1,1.07.25.83.65-.09.5.45.29c1-.38,4.54.61,4.55,1.26,0,.26-.23.32-.51.15s-.39,0-.21.49a1.28,1.28,0,0,0,1,.8c.4,0,.73.24.73.54s-.18.44-.41.3a1.33,1.33,0,0,0-1.17.23c-.62.39-.58.48.19.48.52,0,.83.18.7.39-.27.44.45.53,5.5.69,4.09.13,3.57.91-.64,1-2.61,0-2.76.1-1.81.77,1.45,1,2.9,2.47,2.69,2.68a5.85,5.85,0,0,1-2.13-.62c-2.4-1-11.52-2.92-13.24-2.81-2.16.13-1.79.5.83.84a27.5,27.5,0,0,1,3.24.55c1.32.41.09.89-2.15.84s-2.18,0-.9.68,1.21.75.26.84a7.83,7.83,0,0,0-3,.73c-1.39.61-10.34-.07-12.38-.93-1.71-.73-1.67-.74,2.29-.79,2.32,0,4-.27,4-.57a.63.63,0,0,0-.65-.54l-4.8-.16c-5.84-.19-9.26-1-9.91-2.46-.3-.63-.86-1.07-1.26-1-1.28.29-3.2-.4-2.82-1,.22-.36.13-.44-.24-.21s-.6.12-.6-.18-.41-.54-.91-.53c-.72,0-.61.29.56,1.3a5,5,0,0,0,2.21,1.26c.41,0,.75.23.75.52,0,.65-1.4.69-1.64,0s-3,0-4.42,1.07a3.9,3.9,0,0,0-1.37,2.16c-.21,1.2,0,1.44,1.93,2.12,4.58,1.61,6.31,2.34,5.58,2.37-1.68.06.77,1.53,2.75,1.65a3.67,3.67,0,0,1,2.34.73c.2.35,2.09.75,4.25.92,5.79.43,7.68.77,10.06,1.8a24.15,24.15,0,0,0,6.05,1.23c3.38.27,8.31,1.48,8.32,2.05a10.1,10.1,0,0,1-.46,1.38c-.25.66-.71,2.16-1,3.34l-.55,2.13L969.66,135c-3.08-1.48-4.65-1.58-2.25-.14,1.4.84,1.63,1.17,1.05,1.54s-.25.47.93.47a2.84,2.84,0,0,1,2,.59c.26.41,0,.5-.87.29-.69-.17-4-.41-7.48-.55l-6.23-.24,2.7.86c1.57.51,2.79,1.23,2.93,1.75s1,1,2.33,1.21a8.74,8.74,0,0,1,3.05,1c.86.64.74.68-1.11.45a26,26,0,0,1-4.16-1c-2.78-.93-6.09-1.14-6.33-.41-.11.32.26.7.82.84a1.88,1.88,0,0,1,1.2,1.47c.13.9.68,1.35,2.09,1.74,2.24.61,2.28.65,1.86,2.29-.24.93-.49,1.12-1,.74a2.55,2.55,0,0,0-2-.13c-1.27.39-1.27.4.26.51,1.32.09,1.37.15.37.35a2.64,2.64,0,0,1-1.91-.35c-.66-.54-3.3-.36-5.46.36-1.38.46,1.1,1.43,3.38,1.31,1.6-.08,1.84,0,1,.37s.6.45,3.9.41c2.71,0,5.28,0,5.71.06a9.38,9.38,0,0,0,2.46-.27c1.19-.28,1.68-.2,1.69.25s-.34.51-.81.34-.69-.12-.54.1-.83.71-2.16,1.08c-1.77.49-2.21.78-1.66,1.12,1,.62.63.89-1.81,1.25-1.57.24-1.76.2-.78-.15,1.25-.45,1.24-.47-.38-.51-1.28,0-1.6.14-1.37.73s0,.72-1.44.46a7.87,7.87,0,0,0-3.55-.14c-.77.09-.23.29,1.3.49l2.59.34-2.69.1c-1.48.05-2.85-.15-3-.46s-1.67-.42-4.32-.16c-4.38.43-7.29,1.56-6.36,2.48.41.4,1.19.35,2.79-.18,2.88-.95,3.8-.82,9.17,1.34,4.83,1.95,6.83,3.25,5,3.27a8.8,8.8,0,0,1-3-1c-2.44-1.29-2.39-1.3-3,.35-.48,1.28-.67,1.35-2.91,1.05a38.41,38.41,0,0,0-3.88-.3c-.94,0-1.49-.26-1.49-.73,0-1-1.74-1.48-3.7-1-1.26.29-1.53.57-1.31,1.39s.06.94-.47.74-.74,0-.74.28c0,.61-2.62.4-5.71-.45-1.81-.5-1.71-.55,1.67-.82a3.72,3.72,0,0,0,2-.69c.42-.43,0-.68-1.68-.94a10.57,10.57,0,0,1-3.92-1.58c-1.42-1.06-2.25-1.23-5.72-1.21-4.87,0-6.38-.32-6.44-1.44,0-.54-.14-.61-.3-.2a1.67,1.67,0,0,1-1.39.71c-.61,0,.17.47,1.74,1,3.3,1,3.85,2.29,1.06,2.41-3.83.16-4.16.23-4.15,1,0,.44-.55,1-1.24,1.28a3.9,3.9,0,0,0-1.58,1c-.54.89-2.37.7-2-.21.16-.43,0-.78-.32-.78s-.45-.23-.28-.53.14-.5-.1-.46a5.71,5.71,0,0,1-1.2,0c-.7-.06-.7-.12,0-.58s.59-.51-.26-.43c-.57,0-2,0-3.12,0-1.49-.05-1.86-.21-1.32-.56s.29-.47-.93-.42a3.9,3.9,0,0,1-2.22-.46,2.38,2.38,0,0,0-1.81-.27c-1,.2-1.2.49-1,1.23s.1.93-1.4.68c-1-.16-2-.38-2.38-.49s-.64.15-.64.57-.24.77-.54.77-.42-.23-.25-.5-.59-.41-2-.26c-2.07.23-2.36.14-2.37-.76s-.27-1-2.59-.71c-1.43.16-2.6.08-2.6-.18,0-.66-7.88-.08-8.77.64-.56.46-.79.44-1-.07s-.38-.54-1.06,0-.75.55-.41,0,.15-.65-.3-.59c-1.55.23-2.56,0-2.23-.57.2-.34,0-.52-.62-.45a20,20,0,0,1-2.78,0c-1.77-.12-1.76-.14.51-.51s2.23-.38.52-.45a21.67,21.67,0,0,1-3.12-.36c-1-.22-1.13-.17-.52.26s.7.56,0,.57a4.06,4.06,0,0,1-1.82-.7c-.72-.49-1.73-.6-3.36-.34a13,13,0,0,1-4.15-.07c-1-.24-3.2-.68-4.88-1-2.77-.5-3.13-.46-3.77.42-.46.65-.52,1.14-.17,1.48.91.91.58,1.87-.63,1.82-.89,0-1-.11-.26-.3.5-.13.8-.43.66-.65s-1.47-.08-3,.31c-3.56.95-7,1.06-9.4.3a8,8,0,0,0-3.1-.4c-1,.19-.69.44,1.56,1.43,1.5.66,2.73,1.39,2.73,1.62,0,.44-1.91.68-4.28.54-1.11-.07-1.42.14-1.42,1,0,1.15-.6,1.31-2.06.54a21.22,21.22,0,0,0-5.49-.56,51.28,51.28,0,0,1-6.13-.37l-1.6-.32,1.67-.71c1.33-.56,1.56-.85,1.09-1.41-.8-.95.55-1.46,2.89-1.1s3.25-.68,1.67-2.09c-2-1.77-5.87-3.75-7.36-3.74a6.3,6.3,0,0,1-2.53-.57,14.57,14.57,0,0,0-4.51-.66,20.17,20.17,0,0,1-6.25-1.19,17,17,0,0,0-4.79-1.09,26.86,26.86,0,0,1-4.42-.48c-2.48-.49-11.16-1.27-19.11-1.71L769,147l2.47.78a7.46,7.46,0,0,1,2.47,1.06c0,.32-5.66.2-6.62-.14s-.79-1.15.25-1.19c.78,0,.76-.11-.13-.49-1-.44-1-.44,0-.51,1.69-.13-1.12-1.06-3.35-1.12a15.55,15.55,0,0,1-3.67-.65,26.49,26.49,0,0,0-6.31-.53c-2.47,0-4.23-.09-3.91-.29s.34-.44-.19-.6c-1.51-.48-9.67-1.86-13.75-2.32-2.28-.26-5.67-.71-7.53-1l-6-.91a15.39,15.39,0,0,1-3.12-.68,27.38,27.38,0,0,0-4.92-.62c-2.43-.18-4.76-.41-5.19-.51-1.13-.27-8.32-.74-14-.91a128.77,128.77,0,0,1-13.24-1c-.86-.13-2.73-.35-4.16-.49s-5-.68-8-1.2-7-1.06-8.94-1.2-6-.6-9.09-1A139.17,139.17,0,0,0,637.61,130c-2.57-.13-6.77-.45-9.35-.71-5.33-.53-10.93-.93-15.83-1.14a28.58,28.58,0,0,1-5.46-.73c-1.16-.33-7.22-.67-13.75-.77-16.87-.27-23.27-.5-23.86-.86a1.75,1.75,0,0,0-1.44.17,31.14,31.14,0,0,1-6.1.88c-14.08,1.1-16.14,1.21-16.86.91a33.56,33.56,0,0,0-6.49.1c-3.14.24-9.79.59-14.78.79s-9.2.37-9.34.39l-4.41.23c-2.29.12-6.25.37-8.82.57s-7.94.51-11.93.7c-11,.52-14.63,1.11-16.08,2.57-.47.48-1.05.74-1.29.59a.54.54,0,0,0-.73.2c-.15.25,1,.48,2.59.5s2.75-.15,2.57-.45c-.3-.47,8.91-.3,13.22.25,1.75.22,3.89.29,22.73.75a65,65,0,0,1,9.09.6,26.32,26.32,0,0,0,5.82.27c3.21-.08,4.69,0,3.89.3a74.62,74.62,0,0,1-9.6.59c-11.56.22-14.18.4-16.85,1.16-2.93.83-32.12.66-32.65-.19-.89-1.41-15.49-2-17.7-.74-1,.57-1.08.75-.39.76.95,0,1.32,1,.38,1.06a27.19,27.19,0,0,1-3.66-1c-3.27-1.08-5-.88-3.31.37.92.66.91.7-.15.7a1.91,1.91,0,0,1-1.55-.76c-.56-1-6.58-1.67-7.11-.8-.24.39-1.31.48-3.19.27-2.15-.23-3.05-.12-3.73.48a6.79,6.79,0,0,1-1.67,1.08c-1.69.63,10.12.6,14,0,1.47-.24,1.69-.17,1.17.37s-3.78,1.12-8.55,1.24A5.14,5.14,0,0,0,434,141c0,.41-.55.48-6.18.76-3,.15-5,.48-5.25.86s-.42.46-.59,0c-.22-.66-10-.88-10.67-.24-.17.17,1.3.3,3.28.3,3.76,0,11.45,1.09,12.07,1.73.19.21-4.26.25-9.9.08-10.75-.31-12.34,0-8.16,1.65,3.26,1.28,2.57,1.86-1.68,1.41-5.13-.53-9.12-.4-9.85.34s-1.43.76-1.43-.2c0-.63-.28-.71-1.17-.38a37.39,37.39,0,0,1-6.62.5c-6.18.08-7,.21-5.18.76.81.24-.51.4-3.51.41-5.06,0-6.15.37-4.66,1.44,1.33,1,.59,1.33-2.76,1.36a16.26,16.26,0,0,0-4.45.58,16.84,16.84,0,0,1-3.75.78,4.7,4.7,0,0,0-2.71.88c-.78,1.25-.46,2.94.62,3.27,2.08.65.95,1.18-3.24,1.53-5.5.47-7.23,0-7.85-2.09-.5-1.7-2-2.34-3.75-1.62s-4.89.57-4.9-.28-.82-1-1.29-.26c-.19.3-1.21,0-2.45-.81-1.78-1.11-2.33-1.23-3.38-.75s-1.88.43-3.59,0a7.71,7.71,0,0,0-4.26,0c-5.88,1.7-6.31,1.71-7.8.19a4.34,4.34,0,0,0-3.07-1.44c-.93,0-1.69.13-1.68.33s-.7.67-1.55,1.06c-1.78.8-2,1.65-.51,1.64.57,0,1,.26,1,.58s.48,0,1.07-.79c1.27-1.63,2.17-1.34,1.71.56-.32,1.3-.27,1.33,1.61,1,1.54-.27,1.88-.18,1.65.41s.34,1,1.48,1.56c1.55.72,4,2.8,3.31,2.81-1.42,0-5.9-1.14-6.17-1.58s-.64-.41-1.33,0c-.91.52-.92.57,0,.9.67.25.83.66.58,1.45a9.53,9.53,0,0,0-.29,2.54c.05,1.31-.11,1.43-1.86,1.43-2.13,0-2.69-.27-3.54-1.78-.32-.57-.79-1-1-1a2,2,0,0,1-1.16-.64c-.38-.38-.88-.57-1.11-.43s-.81-.49-1.3-1.41-.8-1.24-.65-.58c.19.87,0,1-.71.86s-.89-.57-.66-1.74.1-1.51-.59-1.5a2.74,2.74,0,0,0-1.64.77c-.56.57-1.08.64-2.08.27a2.71,2.71,0,0,0-1.88-.14c-.36.22-.45,0-.25-.49s-.16-1.08-1.3-1.64c-2-1-2-1-2,.16,0,.53.65,1.27,1.44,1.67,1.67.83,4.07,2.54,3.58,2.54-.19,0,.07.62.58,1.39.9,1.36.9,1.37-.24,1.08-.8-.2-1.16-.06-1.16.44s-.43.73-1,.73c-1.08,0-2.33-1.18-1.8-1.71.18-.19.65-.08,1,.23,1.17,1,.75-.24-.63-1.78-1.23-1.38-1.38-1.42-2.78-.71s-1.54.67-2.4-.47c-1.25-1.63-1.83-1.52-1.81.35,0,1,.27,1.55.79,1.55s.72.24.65.55,1.16,1.07,2.73,1.7c2.1.83,2.91,1.45,3,2.28.1.62.43,1.13.74,1.13s.44.13.28.29-1.16-.07-2.24-.51a5.53,5.53,0,0,0-2.15-.61c-.32.32.44,1.89.92,1.89.78,0,4.91,4.05,4.52,4.44-.21.21-.82-.06-1.35-.61-2.27-2.34-4.31-3.82-5.26-3.82-.7,0-.93.26-.72.79.32.82-.54,1-3.83.86-2-.1-2.14.62-.38,2.23a4.57,4.57,0,0,1,1.31,1.63c0,.24-.28.16-.62-.18a3.94,3.94,0,0,0-2.31-.61,3.08,3.08,0,0,1-2-.47c-.16-.27-1-.46-1.77-.43-1.86.06-2.66-.42-2.67-1.6,0-.62-.66-1.12-2-1.51-2.58-.76-2.67-.75-2.66.28,0,1.32,3.2,3.89,4.52,3.63.84-.17,1.18.07,1.36,1a1.73,1.73,0,0,1-1.74,2.29c-2.28,0-7.7-3.2-11.54-6.84-.55-.52-1.15-.8-1.33-.61s-.07.49.23.69a8.12,8.12,0,0,1,2,3.37c0,.24.43.73.93,1.09a2.19,2.19,0,0,1,.92,1.17c0,.27.6.77,1.33,1.1,1.6.71,1.23,1.63-.66,1.64a3.9,3.9,0,0,0-2.24.83c-.62.56-1,.64-1.25.25Zm-2.69-12.49c-.32-.95-2.69-2-3.71-1.65-.43.15-.44.68,0,2,.71,2.24,3,3.27,3.65,1.63a3.48,3.48,0,0,0,.1-2Zm-3.37.12a1.11,1.11,0,0,1,.52-.84c.28-.18.51-.09.52.19a1.11,1.11,0,0,1-.52.84c-.28.18-.52.09-.52-.19Zm24.2,2.44a2.8,2.8,0,0,1,.34-1.82c.52-1.15.87-1.33,2.06-1.09.82.18,1.43.08,1.42-.22,0-.61-1.64-1.21-2.67-1-.39.09-.65-.12-.59-.46s-.35-.76-.92-.94-1-.53-1-.78-.8-.6-1.77-.78a6.76,6.76,0,0,1-2.85-1.3c-1.28-1.18-1.63-1.23-1.62-.22,0,.49-.3.65-.83.45s-.78,0-.64.67a1.2,1.2,0,0,0,1,1c.43,0,.72.29.65.63s.82.88,2,1.21,2.07.8,2.07,1a4.61,4.61,0,0,0,1.18,1.6,5.86,5.86,0,0,1,1.25,1.55c.14.82.21.91.75.9.3,0,.42-.2.27-.45Zm4.87-1.66a.53.53,0,0,0-.55-.51c-.3,0-.41.23-.23.52s.43.51.56.51S290.41,167.66,290.41,167.37Zm652-7.56a2.07,2.07,0,0,0-2.47,0c-.13.21.44.41,1.26.43s1.36-.15,1.21-.39Zm-775.68,4.1c.55.2.7.11.45-.29-.58-.93-1.88-.71-1.83.31,0,.5.16.63.3.29a.81.81,0,0,1,1.08-.31Zm80.74-.21c.53-.54-.66-2.26-1.55-2.26-.68,0-.71.15-.18.78s.5.78,0,.78-.47.24-.29.52a1.42,1.42,0,0,0,2,.18Zm-64.62-1.07c-.16-.16-.45.13-.64.64-.28.75-.22.8.29.29.35-.35.51-.77.35-.93Zm-28.17.48a.91.91,0,0,0-1.07-.19c-1.07.42-.94.7.31.7.59,0,.93-.23.76-.51Zm724.81-5.24a1.08,1.08,0,0,0-1,0c-.17.18.14.3.68.27s.73-.15.32-.32Zm-718,3.24c-.18-.17-.3.14-.27.68s.15.73.31.32a1.06,1.06,0,0,0,0-1Zm676.92-4a12.81,12.81,0,0,1-2.6-1.12,1.53,1.53,0,0,0-.91-.36c-1.51-.11-1.73-.22-1.43-.71.17-.29,0-.38-.45-.22a4,4,0,0,1-2.41-.55c-2.16-1.09-2.5-.66-1,1.24,1.29,1.6,3.68,2.27,8.77,2.44l2.34.08Zm-692.42,4c.54-.87.48-1.11-.4-1.57s-3.11.06-3.11.78a1.86,1.86,0,0,0,3.51.79Zm780.91-4.48c-1.25-.41-6-.56-5.37-.16a9,9,0,0,0,3.29.39C926.22,156.81,927.15,156.71,926.87,156.61Zm16.61-.79c-.16-.16-.58,0-.93.36-.5.52-.44.58.3.29C943.36,156.27,943.64,156,943.48,155.82ZM312,158.92a3.57,3.57,0,0,0-.79-1.66,2.27,2.27,0,0,1-.63-1.29c0-.92-.35-.84-1.51.34-1,1-1,1,.25,2.33,1.51,1.61,2.91,1.76,2.68.28Zm-156.2,1a1.78,1.78,0,0,0,1.45-.46c.18-.29-.35-.5-1.23-.5-1.9,0-3.18.48-3.18,1.17,0,.3.4.35.91.13A5.42,5.42,0,0,1,155.79,159.89Zm129.71-1.55a1.16,1.16,0,0,0-.87-.79c-.38,0-.37.33,0,1.08.65,1.2,1.32,1,.83-.29Zm570.62-2.9a1.06,1.06,0,0,0-1,0c-.17.18.14.3.68.27s.73-.15.32-.31ZM949,154.8a7.29,7.29,0,0,0-2.33,0c-.65.12-.12.22,1.16.21s1.81-.11,1.17-.23Zm-802.81,2.07,1.65-.07-1.69-.53c-.93-.29-1.7-.67-1.71-.84a4.46,4.46,0,0,0-.75-1.27c-.66-.85-.85-.87-1.8-.2-.59.41-.89.93-.68,1.14s-.05.71-.59,1.11c-.95.7-.94.74.27,1.19a3.87,3.87,0,0,0,2.45,0,10.73,10.73,0,0,1,2.85-.52Zm19.76.18c.81-.62.87-.89.32-1.55-.88-1-3.07-1-4.25.1-1.35,1.23-1.18,1.65.75,1.87.92.11,1.8.23,1.94.26a3,3,0,0,0,1.24-.68Zm800.1-5.52a1.35,1.35,0,0,0-1.23.33c-.38.39-.18.45.68.22.7-.19.94-.42.55-.55Zm-607.26,3.74c0-.89-1.6-1.47-2.78-1-1.68.66-.84,1.78,1.32,1.76C358.3,156,358.84,155.74,358.83,155.27Zm-200.21.94c-.49-.48-.77-.47-1.25,0s-.34.63.63.62,1.11-.14.62-.63Zm740.06-4.86c2,0,1.7-.3-.8-.67-1.22-.18-1.84-.09-1.64.22.38.61-2.38.06-3.12-.61a5,5,0,0,0-2.34-.51l-1.85-.06,1.82-.39,1.81-.39-1.7-.06c-1.11,0-1.81.22-2,.75a.82.82,0,0,1-1,.53c-.41-.15-.6,0-.42.24a3.55,3.55,0,0,0,2.23.52,25.87,25.87,0,0,1,4,.44,9.1,9.1,0,0,0,2.77.21,11.61,11.61,0,0,1,2.29-.22ZM309,154.79c0-.28-.41-.51-.91-.5-.78,0-.8.08-.13.51,1,.62,1,.62,1,0Zm37.1-.77c.18-.28.13-.54-.1-.57-3.62-.48-4.51-.28-3.44.77.54.53,3.19.39,3.54-.2Zm-23.95-1.13c.16-.43.07-.78-.21-.78s-.5.35-.5.78.1.78.21.78S322,153.32,322.16,152.89Zm-138.83.72c1.1-.7,0-1-2.77-.81-3.41.24-3.78,1.32-.43,1.29a8.73,8.73,0,0,0,3.2-.48Zm-5.64-1.05c0-.53-.52-.63-3.44-.71-1.1,0-1.54.17-1.37.61.31.77,4.82.86,4.81.1Zm179-1.2c0-.29-.35-.52-.78-.52s-.78.24-.77.53.35.51.78.51S356.73,151.64,356.73,151.36Zm597.45-3.84a2.06,2.06,0,0,0-1.3,0c-.35.15-.06.26.65.26s1-.13.65-.27Zm-749.54,4c.16-.18,0-.43-.36-.55a1.11,1.11,0,0,1-.66-1c0-1.52-1.75-.53-2.31,1.3-.36,1.18-.29,1.23,1.32.89a6,6,0,0,0,2-.68Zm757.66-5.45a8.06,8.06,0,0,0-1.77-.52c-1.14-.25-1.35-.2-.78.18S962.83,146.51,962.3,146.07ZM161,149.66l1.18-.78-1.08-1c-.93-.85-1.33-.91-2.84-.4-1.8.61-3.52,2.11-2.41,2.1a.7.7,0,0,1,.59.76c0,.93,2.71.52,4.56-.69Zm-21.43.56a1.06,1.06,0,0,0-.81-.51.5.5,0,0,0-.49.52c0,.28.37.51.82.51s.66-.24.48-.52Zm14.88-3a6.53,6.53,0,0,1,2.17-.72c1.61,0,1.31-1-.52-1.8-2.38-1-2.3-1-2.29.28s-2,2.25-2.82,1.51-1.33-.56-1.32.32a.76.76,0,0,1-.74.78,1.38,1.38,0,0,0-1.08.55C147.35,148.86,152.58,148.13,154.41,147.19Zm15.15-1.31a7.27,7.27,0,0,0,2.37-1.34c0-.17-.24-.16-.54,0a1.22,1.22,0,0,1-1.26-.25c-.55-.45-1.09-.4-2.28.22a6.28,6.28,0,0,0-1.93,1.43c-.22.37-.14.46.23.23s.6-.13.6.17c0,.73.05.72,2.81-.49Zm777.83-4.54a2,2,0,0,0-1.29,0c-.36.15-.07.26.65.26s1-.13.64-.27Zm1.6-.83c-.13-.22.77-.42,2-.46,1.89-.05,2-.13.93-.47l-1.3-.41,1.3-.1c.71-.06,1-.22.61-.37a6.1,6.1,0,0,0-2.85.56,17.42,17.42,0,0,1-4.08,1c-2.78.19-2,.71,1,.69,1.43,0,2.48-.2,2.35-.41Zm-789.33,4.67c.19-.5,0-.66-.47-.46-.82.32-1,1.22-.28,1.22C159.16,145.94,159.5,145.59,159.66,145.18Zm774.75-5.69c1.36-1.05,1.1-1.36-1.12-1.34-1.28,0-2.13.28-2.31.76C930.49,140.22,932.92,140.64,934.41,139.49Zm8.79-.21a1.06,1.06,0,0,0-1,.05c-.17.17.14.29.68.27s.73-.15.32-.32Zm4.3-.71c-.17-.28-1.53-.47-3-.42l-2.7.1,2.34.34c3.58.53,3.72.53,3.37,0Zm-851.87,5c0-1.24-.95-1.42-1.55-.3-.47.9-.4,1.06.5,1C95.16,144.29,95.64,144,95.63,143.54Zm861.85-5.4a3.08,3.08,0,0,0-1.55,0c-.35.15.06.25.92.24s1.14-.14.63-.27Zm-528.57-.59a2.06,2.06,0,0,0-1.3,0c-.36.15-.06.27.65.26s1-.12.65-.27Zm64.07-.92c.1-.33-.35-.73-1-.91-1.68-.46-9.77-.65-10-.24s-2.18.32-2.63-.12-1.77.12-1.77.71c0,.26,2.17.45,4.81.43,6.55,0,6.55,0,6.91.54s3.47.34,3.71-.41Zm-392,.2a2.42,2.42,0,0,1,1.7-.9c1.62,0,2.71-.56,2.7-1.37a.86.86,0,0,1,.91-.74c.83,0,.82-.09-.09-.77s-.91-.77-.13-1.07c.47-.19.85-.53.85-.77,0-.8-2.13-1.09-3-.4-.67.53-.64.41.1-.47l1-1.17-1.62.2a8.21,8.21,0,0,0-3,1.11,3.64,3.64,0,0,1-2.35.65c-.54-.14-1-.06-1,.18s-.41.56-.9.71,0,.22,1,.14,1.87,0,1.82.24.37.76,1,1.22c.87.71.89.81.13.57-1.26-.39-3.12.42-4.73,2A9.86,9.86,0,0,0,94,137.76a15.28,15.28,0,0,0,3.17.06c2.32-.08,3.35-.35,3.82-1Zm-1.16-1.71a1.07,1.07,0,0,1,1-.05c.42.17.3.29-.31.32s-.85-.1-.68-.27Zm4.51-3.32a1.09,1.09,0,0,1,.51-.81c.29-.18.38,0,.2.49C104.75,132.38,104.38,132.55,104.38,131.8Zm-4.67-.23c0-.12.23-.37.51-.55s.52-.08.52.23a.53.53,0,0,1-.51.55C99.94,131.8,99.71,131.7,99.71,131.57Zm369.53,2.81c0-.21-.12-.38-.26-.38-2.07,0-2.09,0-1.3.52s1.56.48,1.56-.14Zm458-2.94c.86-.38.75-.46-.69-.48-1,0-1.58.19-1.39.49.38.61.67.6,2.08,0Zm34.23-2.85c-2.2-1-6.24-1.28-7.5-.47-.77.49-.78.49,2.83,1.22a28,28,0,0,0,3.9.22h2.85l-2.08-1ZM83.12,134.51c0-.29-.37-.52-.81-.51s-.67.23-.49.52a1.12,1.12,0,0,0,.81.51A.51.51,0,0,0,83.12,134.51Zm839.67-5.31c0-.11-.58-.31-1.28-.44s-1.16,0-1,.21C920.77,129.39,922.79,129.6,922.79,129.2Zm-871.86,4a3.27,3.27,0,0,0-1.56-.49c-.69,0-.69.06,0,.5a3.5,3.5,0,0,0,1.56.49c.69,0,.69-.06,0-.5Zm7.25-2.85c0-.49-1.56-.73-1.83-.28-.17.27.17.5.76.49S58.18,130.43,58.18,130.32ZM86,130c1.72-.48.86-1.76-1.17-1.75s-2.85.91-1.72,1.62c.85.53,1.36.55,2.89.13Zm840.44-6.2a1.07,1.07,0,0,0-1,.05c-.17.18.14.3.68.27s.73-.15.31-.32Zm3-.54c0-.37-3.27-1.73-3.53-1.47-.45.46,1.37,1.62,2.53,1.61.55,0,1-.06,1-.14ZM69.28,125.11c-.43-.23-.65-.65-.48-.92.6-1-2.83-.68-3.89.36-.64.63-.52.77.93,1a4.15,4.15,0,0,1,2,.76c.15.25.72.16,1.27-.19.85-.53.88-.69.22-1.06Zm4.7,1c0-1.08-2.14-1.21-3.36-.21l-1.25,1,2.31-.18C72.94,126.61,74,126.32,74,126.07Zm858.19-6.93c-2.12-1-2.68-1.51-2.46-2.22.41-1.34-.67-2-4.38-2.55-2.64-.4-3.56-.35-4.65.24l-1.36.75h1.43c.79,0,1.43.24,1.43.52s.33.37.73.22.85.23,1.1,1.34a3,3,0,0,0,1,1.84c.47.16,5.94.81,9.43,1.12.28,0-.72-.55-2.24-1.27ZM79.42,124.41l-1.31-.73,1.4,0a2.42,2.42,0,0,1,1.68.43,3,3,0,0,0,1.58.69c.71.13,1.18.07,1-.14-.36-.58,2.27-1.5,5.28-1.84,1.6-.19,2.81-.1,3,.22a1.26,1.26,0,0,0,1,.53c.38,0,.31-.21-.16-.51-.63-.4-.55-.5.42-.52.77,0,1.07.2.83.59s-.14.46.22.23.46-1.18.26-2.59c-.25-1.76-.15-2.31.51-2.56s2,1.07,1.84,2.07c-.25,1.56,1.74,2.75,2.53,1.51a20.58,20.58,0,0,1,2.45-2.4A7.55,7.55,0,0,0,104,117c0-.3.61-.49,1.35-.42,1.51.15,3.17-1.28,1.93-1.65-4.64-1.37-9.43-1.56-10.26-.41a8.54,8.54,0,0,1-3.33.53c-2.72.1-3.19.29-4.78,2-1.14,1.18-1.72,2.27-1.64,3s-.17,1.24-.77,1.37-.81,0-.59-.62,0-.82-1-.81c-1.4,0-1.9,1.25-.69,1.73.39.16.28.28-.26.31s-.9.25-.9.49-1.43.59-3.17.76a9.06,9.06,0,0,0-3.76.94c-.45.49-.27.56.81.3.77-.19,1.54-.11,1.72.18a1.53,1.53,0,0,0,1.2.49c.64,0,.53-.22-.42-.76ZM81,121c.63-.41.56-.51-.36-.51a2,2,0,0,0-1.46.52C78.73,121.71,79.93,121.7,81,121Zm819.81-5.34a2.87,2.87,0,0,0-1.55,0c-.35.14.06.25.92.23s1.14-.13.63-.26Zm4.36-1c-2.22-1.48-8.39-2.41-8.38-1.26s2.35,1.87,7.35,1.85c1.55,0,1.74-.12,1-.59Zm53.28-.37L960,114l-1.25-1.15c-1.14-1-1.54-1.11-4.43-.69a12.75,12.75,0,0,1-3.59.2c-.34-.2-1,.86-1,1.57,0,.2,2.74.52,5.52.65a15.63,15.63,0,0,0,3.21-.25ZM83,117.9a.53.53,0,0,0-.53-.51.51.51,0,0,0-.51.52.52.52,0,0,0,.52.52A.53.53,0,0,0,83,117.9Zm-7.28-1.25c0-.51-.52-.77-1.56-.76s-1.56.28-1.56.66-.17.39-.51-.13-.51-.52-.51-.21c0,.93.6,1.25,2.42,1.23C75.2,117.44,75.74,117.19,75.73,116.65Zm4.67-.79c0-.28-.36-.37-.78-.2s-.78.4-.78.51.35.2.78.2S80.4,116.14,80.4,115.86Zm-9.83-.49c1.48-.8,1.25-2.4-.4-2.8-.75-.19-1.51-.15-1.68.09-.7,1-3.11,2.21-3.42,1.72-.51-.81-3.89-.6-3.88.25,0,.46.36.63,1,.46a2.94,2.94,0,0,1,1.94.28c1.23.7,5.15.71,6.44,0Zm15-.45a1.84,1.84,0,0,0,.26-1.07c0-.53.69-1,1.81-1.37a6.14,6.14,0,0,0,2.07-.89A2.88,2.88,0,0,1,91,111c.79-.2.69-.28-.4-.31-2.14-.08-9.45,3.8-8.88,4.71C82,115.77,85,115.42,85.57,114.92Zm834.91-5.62c-.12-.62-.67-.9-1.69-.9-1.83,0-2.37,1.15-.7,1.45,2.29.43,2.57.36,2.39-.55Zm16.93-.3c-.34-.55-2.37-.59-3.68-.07-.83.32-.79.41.35.67,1.63.38,3.71,0,3.33-.6ZM96.34,113.41c1.71-.58,1.42-1.14-.79-1.49-3-.47-3.46-.39-4.18.78-.61,1-.58,1.06.4.74.58-.19,1.07-.14,1.07.1C92.84,114.06,94.62,114,96.34,113.41Zm830.46-5.84a3.38,3.38,0,0,0-1.56-.49c-.69,0-.69.06,0,.5a3.38,3.38,0,0,0,1.56.49C927.49,108.07,927.49,108,926.8,107.57ZM82.32,112.39c.64-.18,1.16-.53,1.16-.78,0-.78-2.47-.48-2.78.34s-.11.92,1.62.44Zm15.05-2.81c-.24-1.22-1.6-1.29-2.89-.15s-1.14,1.51,1.2,1.22C97.05,110.48,97.5,110.2,97.37,109.58Zm862.41-5.22c-.71-.71-8.86-2.08-9.38-1.58-.3.3.2.49,1.31.5a32.08,32.08,0,0,1,4.9.71l3.34.72C960.07,104.73,960,104.58,959.78,104.36Zm11.25-.53c1.08-.19,1.89-.41,1.8-.5a24.7,24.7,0,0,0-3.61-.47c-3.32-.29-3.45-.26-3.17.77.23.84.59,1,1.66.81C968.46,104.29,970,104,971,103.83ZM73.77,108.32c-.42-1.08-1.21-.89-1.21.29,0,.68.26.93.75.74A.8.8,0,0,0,73.77,108.32Zm902.29-6a.76.76,0,0,0-.76-.77,15.41,15.41,0,0,1-3-.75,30.1,30.1,0,0,0-4.31-1l-2-.27,2.22,1a20.25,20.25,0,0,0,4.16,1.35,11.38,11.38,0,0,1,2.72.77c1,.57,1,.57,1-.32Zm-875,4.07c0-.28-.35-.37-.78-.2s-.77.4-.77.51.35.2.78.2S101.1,106.66,101.09,106.38Zm831.37-6.11c.75-.5.62-.53-2.47-.51a.71.71,0,0,0-.56.53C929.21,101,931.44,100.94,932.46,100.27Zm-861,3.43c-.36-.44-.76-.68-.89-.55-.36.36.38,1.34,1,1.34C71.94,104.48,71.9,104.19,71.48,103.7ZM927,98.23a6.11,6.11,0,0,0-2.07-.42c-.84,0-.79.1.26.43C927,98.8,928.32,98.79,927,98.23Zm-835.79,3c0-.29.56-.52,1.26-.53a2.15,2.15,0,0,0,1.59-.53c.35-.58-.48-.65-2.18-.18-1.13.31-2.11,1.77-1.17,1.76a.51.51,0,0,0,.5-.52Zm830.57-8c-2.29-.86-2.64-.92-4.16-.76-1.8.2,1.81,1.52,4.17,1.53h2.07l-2.08-.77ZM104.93,98.55c.18-.28-.16-.51-.75-.51s-1.07.24-1.06.53.34.51.75.51A1.34,1.34,0,0,0,104.93,98.55Zm791.6-9.31c.12-.08-.58-.12-1.56-.08s-1.36.18-.85.3.76.49.55.85.09.27.64-.16Zm4.55,1c-.61-.6-4.1-.75-3.73-.17a3.36,3.36,0,0,0,2.2.53C900.58,90.62,901.27,90.46,901.08,90.27Zm-11.52-2a5,5,0,0,1-1.56-.63c-.51-.4-4-.7-6.36-.55-1.91.13-1.32,1.12.65,1.11,1,0,1.82.16,1.82.37s1.46.29,3.25.16S890.13,88.34,889.56,88.22Zm79-1a1.73,1.73,0,0,0-1.54-.57c-.46.18-.25.45.6.8C969.46,88.23,969.57,88.2,968.6,87.25Zm-70.49-.77c0-.28-.46-.43-1-.34-1.54.24-1.67.65-.24.75C897.54,87,898.11,86.76,898.11,86.48Zm15-.56a15.32,15.32,0,0,0-3.41-1.22c-1.32-.24-1.59-.12-1.65.77s.17,1,.9.79a7.17,7.17,0,0,1,2.7.14c2.88.66,3.38.49,1.46-.48Zm28.28-.49a6.9,6.9,0,0,0-2.05-1.28,4.11,4.11,0,0,1-1.56-1,10.67,10.67,0,0,0-6.23-2.12,17.87,17.87,0,0,1-4.16-.75c-2.64-.78-11.22-1.07-12.27-.42-.36.23.27.89,1.67,1.71,1.85,1.09,2.07,1.38,1.23,1.54-2,.38-1.93,1.07.08,1.61,2.52.68,3.63.68,4.9,0a4.12,4.12,0,0,1,3,0c2.52.65,5.53,1,11.28,1.31a30.61,30.61,0,0,1,4.89.48.92.92,0,0,0,.53.22c.17,0-.4-.57-1.26-1.27Zm-41-.18c.58-.59.39-.85-1.21-1.6-2.23-1.05-8.45-1.71-6.46-.69.64.33,1.17.79,1.17,1s.47.43,1,.43,1,.21,1,.48.64.57,1.43.69l1.85.28A1.83,1.83,0,0,0,900.44,85.25ZM123.36,87.18c.52-.64.39-.7-.9-.41-2.49.57-2.89.76-2.59,1.23.4.64,2.74.09,3.49-.82Zm767.21-6.91c.18-.3-.1-.88-.63-1.27-1.44-1.08-1.79-.91-1.12.54S890,81.16,890.57,80.27ZM929.19,78c0-.59-4.27-.93-5.19-.42-.43.24-.66.46-.51.49l1.8.29a7.22,7.22,0,0,1,1.72.41c.31.31,2.19-.36,2.18-.77ZM55.27,83c0-.11-.36-.2-.78-.2s-.78.23-.78.51.35.37.78.2S55.27,83.11,55.27,83ZM937,76.92a7.59,7.59,0,0,0-1.7-1.7l-1.7-1.4,2.85,0,2.86-.06-1.7-.72c-.93-.4-1.69-1.08-1.69-1.53,0-1.12-1.43-1-2.17.2-.83,1.35-1.79.91-4.71-2.17-1.68-1.78-2.27-2.74-1.85-3,.94-.59.46-.8-4-1.71-5.39-1.1-8.61-1-9.48.16-.62.86-.76.86-2.6-.1a10.16,10.16,0,0,1-2.54-1.76c-.62-.78-.82-.74-4.37,1.06-.9.45-2.31-1.22-1.78-2.1.17-.27-.46-.53-1.41-.56-2.43-.09-4.88-.27-8.43-.63a12.55,12.55,0,0,0-3.89.07c-4.24,1.94-7,1.75-8.61-.6-.66-1-1.26-1.21-3.2-1.2-1.69,0-2.6-.25-3.07-.89s-1.5-.91-4.22-.95a22.31,22.31,0,0,1-4.32-.35c-2.91-1.13-5.31-1.77-5.86-1.58-3.77,1.35-3.72,1.32-2.66,2a15.2,15.2,0,0,0,3.48,1.33A6.72,6.72,0,0,1,863.05,60c.56.94,3.52,2.31,5,2.3a2.68,2.68,0,0,0,1.87-.76,1.35,1.35,0,0,1,1.38-.46c.58.21.61.45.16,1-.62.76.28,1,3.09.71,1-.09,1.16.07.86,1s-.26,1.13,1.64.74a13.28,13.28,0,0,1,2.52-.33c.28,0,3.66.15,7.51.24,5.28.13,7.13.35,7.54.91s2,.89,3.92,1.09c3,.32,3.26.28,2.35-.4s-1-.76.08-1.11c1.7-.55,3.55.11,3.65,1.31.07.86-.14,1-1.13.76-1.37-.33-2.13.76-1.19,1.69.42.41.41.94,0,1.91-.8,1.79-.84,1.73,1.09,2,4.7.68,6.1.76,6.1.34,0-.25-1.12-.88-2.48-1.39-2.42-.93-2.44-.95-1-1.24s1.48-.33.6-1.19c-.51-.5-1.13-.78-1.39-.61s-.48.08-.48-.19c0-.85,4.87-.05,6,1,.61.55,1.31.93,1.56.85a9.54,9.54,0,0,1,2.8.72,25.15,25.15,0,0,0,4.16,1.1c1,.14,2.52.42,3.38.61,1.41.31,1.49.26.84-.51s-.61-.86,0-.86a1.61,1.61,0,0,1,1.76,1.54c0,.51.7.87,2.08,1,2.31.29,5.46,1.53,5.46,2.14a.47.47,0,0,1-.51.39.54.54,0,0,0-.52.55c0,.33,1.06.49,2.6.41a6.18,6.18,0,0,0,2.6-.43Zm-21.73-7.74c-2.39-1.51-2.11-2.23.38-1,1.15.58,2.09,1.28,2.09,1.56,0,.75-.58.61-2.47-.58Zm12,6.9a2,2,0,0,0-1.29,0c-.36.15-.07.27.65.26s1-.12.64-.27Zm-20.11-.55c.18-.29,0-.38-.49-.2-.9.35-1.06.72-.32.72a1.14,1.14,0,0,0,.81-.52Zm43.33-.78a1.14,1.14,0,0,0-.52-.81c-1-.59-.54-1.79.77-2.13,1-.27,1.19-.48.71-1a2.17,2.17,0,0,0-1.47-.71,2.38,2.38,0,0,1-1.47-.59c-.75-.73-3.76.4-3.75,1.42,0,.37.76,1.27,1.7,2s1.93,1.55,2.21,1.82c.69.63,1.82.66,1.82,0ZM46.66,80.3c.16-.26-.1-.86-.57-1.32-1-1-2.08-.29-1.57,1A1.25,1.25,0,0,0,46.66,80.3Zm21-.44a2.18,2.18,0,0,1,1.36-.79c.39,0,.71-.24.71-.52S69.43,78,69,78s-.9-.7-1.09-1.55c-.44-1.95-2-2.07-3.15-.27-1.05,1.63-.59,2.36,1.51,2.37,1.37,0,1.5.09.75.54-1,.56-1.23,1.52-.45,1.52A2.09,2.09,0,0,0,67.7,79.86ZM75,79.32c.61.37.59-1.36,0-2.32-.4-.63-.66-.61-1.79.14a5.15,5.15,0,0,1-2.11.88c-1.35,0-.87,1,.64,1.33.79.17,1.66.36,2,.44a.6.6,0,0,0,.69-.31.42.42,0,0,1,.65-.16Zm6.18,0a2.34,2.34,0,0,0-.72-1.13c-.61-.6-.87-.56-1.71.23A7.14,7.14,0,0,1,77,79.67c-.42.16.35.25,1.71.2s2.46-.29,2.46-.53ZM91.85,79a4.33,4.33,0,0,1,2-.66c2-.24,2.27-1.3.34-1.58-.86-.11-1.44,0-1.29.21s0,.43-.25.43a1.14,1.14,0,0,1-.85-.52c-.2-.32-.65-.34-1.2,0a16.48,16.48,0,0,1-3.85.86c-1.64.22-3,.59-3,.82,0,.81,7.3,1.24,8.07.48Zm16-3.19c1.68-.67-.42-1.85-3-1.67-.81.06-.86.2-.32.84s.44.78.09.78a1.18,1.18,0,0,1-.87-.51c-.45-.71-2.86-.64-2.86.08,0,.32.47.45,1.05.3s.9-.07.74.19c-.33.56,3.75.55,5.14,0Zm-26.39-.41c.2-.32-.55-.5-1.92-.46-1.88.06-2,.13-.93.48,1.85.58,2.49.57,2.85,0Zm865.67-9.8a2.55,2.55,0,0,0-2.47-2.74c-1.14,0-1.26.92-.36,2.85C945,67.32,946.85,67.25,947.09,65.56Zm-72.53-1.43a8.17,8.17,0,0,0-2-.5l-1.82-.31,1.82.7c1.61.61,2.65.67,2,.11Zm87.05-1.5c-.69-.39-1.13-.38-1.53,0s-.16.57,1,.55c1.34,0,1.41-.09.57-.58Zm-37.2-.71a.54.54,0,0,0-.55-.52c-.3,0-.4.24-.22.52s.42.52.55.52S924.42,62.2,924.41,61.92Zm8-.59c1.68-.07-2.31-1.49-4.17-1.5a12.6,12.6,0,0,1-3.55-.51c-1.78-.67-2.82-.07-1.52.87a6.57,6.57,0,0,0,3.06.71,10.68,10.68,0,0,1,3.15.46,3,3,0,0,0,1.73.22,5.31,5.31,0,0,1,1.3-.25Zm-24.06-2.42c-1-.66-5.72-.63-5.71,0,0,.29,1.42.5,3.24.49,2.29,0,3-.18,2.47-.53Zm-785.5,3.92c.45-.18.69-.53.53-.78-.48-.76-2.69-.51-3,.33s.94,1,2.48.45Zm727-5.19c-.49-.48-.77-.48-1.25,0s-.34.63.63.62,1.1-.15.62-.63Zm44.78-1.23c-.18-.29-.43-.52-.56-.52s-.22.24-.22.52a.54.54,0,0,0,.55.52C894.61,56.93,894.72,56.69,894.54,56.41Zm-59.95-.64a3.5,3.5,0,0,0-1.56-.49c-.69,0-.69.06,0,.5a3.27,3.27,0,0,0,1.56.49c.69,0,.69-.06,0-.5Zm-11.45-4.31c0-.78-.9-1.22-3.9-1.92-4.11-.95-6.08-1-6.53-.3-.36.58-.55.56-1.11-.14S805,47.22,805,47.93c0,.5,1.42,1.8,2,1.8a6.24,6.24,0,0,1,2,1.29c1.3,1.11,1.59,1.18,2.08.51.31-.43.67-.68.79-.56a18.12,18.12,0,0,0,3.58.48,46.89,46.89,0,0,1,5.18.69c2,.48,2.6.34,2.59-.68ZM121.62,53a1.91,1.91,0,0,0-1.29,0c-.36.14-.07.26.65.25s1-.12.64-.26ZM786.25,45.2c-1-.65-1.7-.65-1.29,0a1.53,1.53,0,0,0,1.2.5c.75,0,.77-.08.09-.51Zm131.08-1.92c.12,0,.21-.35.21-.78s-.49-.77-1.27-.77a2.12,2.12,0,0,1-1.65-.6c-.26-.4-.1-.49.49-.27s.86.08.86-.22c0-1-1.72-.21-1.88.85s1.27,2.48,2.31,2.07a4.53,4.53,0,0,1,.93-.28Zm-140.69-.34a7.54,7.54,0,0,0-4.09-.83c-.81.06-.86.21-.32.85s1.53.75,3.31.71C778.19,43.61,778.2,43.61,776.64,42.94ZM820,42.15a1.37,1.37,0,0,0-.48-1c-.8-.48-2.07.29-1.77,1.06C818.1,43.14,820,43.11,820,42.15Zm-3.11-1.83c1.1,0,1.36-.77.46-1.32a.87.87,0,0,1-.31-1c.29-.75-1.44-1.37-2.58-.92a1.13,1.13,0,0,0-.72.95c0,.83,1.31,1.35,2.34,1,.43-.17.78-.11.78.14s-.8.71-1.8,1c-1.53.49-1.95.43-2.85-.4s-1.26-.85-2.15-.37c-1.38.75-.7,1.46,1.57,1.61.95.07,1.86.43,2,.81s.52.42,1.26-.38a3.39,3.39,0,0,1,2-1.08ZM698.13,41.81a2,2,0,0,0-1.29,0c-.36.15-.07.26.65.26s1-.13.64-.27Zm109.43-2.07a10.88,10.88,0,0,0-.06-1.65c-.21-1.84-2.63-3.3-2.62-1.58,0,.48-.49.78-1.29.79-1.87,0-1.56.62.94,1.89s3,1.39,3,.55Zm107.88-.59c-.43-.27-.67-.67-.53-.89s-.44-.46-1.3-.52c-1.48-.11-1.5-.09-.38.47.64.32,1.17.78,1.17,1s.41.43.91.42c.78,0,.8-.08.13-.5Zm-158.55,0a1.21,1.21,0,0,0-.94-.51c-.37,0-.31.21.16.51,1,.64,1.18.64.78,0ZM803.21,39a4.3,4.3,0,0,0-1.82,0c-.5.13-.09.24.91.23s1.41-.12.91-.24Zm-33.87-1.49c-.18-.29-.43-.52-.56-.52s-.22.24-.22.52a.54.54,0,0,0,.55.52C769.41,38,769.51,37.81,769.34,37.53ZM753,37.1a8,8,0,0,1,1.55-.88l1.29-.61-1.39,0a8.41,8.41,0,0,1-2.2-.34c-.54-.2-.82,0-.82.51s-.29.71-.78.52a2.53,2.53,0,0,0-1.68.12c-.71.32-.52.48.91.73,2.07.37,2.75.37,3.12,0Zm10,.11a1.07,1.07,0,0,0-1,0c-.17.18.14.3.68.27s.73-.15.31-.32Zm73.6-.91c0-.43-.22-.78-.47-.78s-.6.36-.76.79,0,.77.47.77A.77.77,0,0,0,836.54,36.3Zm-91.83-1.51c.46-.57.44-.74-.12-.77-.39,0-1.82-.1-3.17-.18-1.7-.11-2.47,0-2.47.48,0,1,.39,1.17,2.85,1.19a4.32,4.32,0,0,0,2.91-.72Zm40.64-.92c.37-.61-2.9-.65-3.85,0-.55.36-.16.5,1.41.49A4.54,4.54,0,0,0,785.35,33.87ZM736.61,33a9.64,9.64,0,0,0-2.86-.38,5.92,5.92,0,0,1-2.19-.28,2.35,2.35,0,0,0-1.55-.11c-.37.15-.16.29.47.31a2,2,0,0,1,1.46.55c.18.28,1.65.48,3.28.45,2.62-.06,2.78-.12,1.39-.54Zm-10-1.27a1,1,0,0,0-1,.05c-.17.17.14.29.69.27s.72-.16.31-.32Zm37.78-.42c-1-.66-3.27-.64-2.85,0a2.9,2.9,0,0,0,2,.5c1.26,0,1.47-.14.87-.52Zm-48.55-.14c-.65-.61-9.55-2.28-10-1.86-.6.61.29.91,4.61,1.55,5.73.85,5.94.86,5.35.31Zm-17.63-2a1.43,1.43,0,0,0-1.1-.51c-.43,0-.64.24-.46.52a1.39,1.39,0,0,0,1.11.51C698.15,29.7,698.36,29.47,698.18,29.18Zm-6.51-3.32c0-.77-2.06-1.54-3.76-1.41a1.41,1.41,0,0,1-1.2-.41c-.51-.82-5.8-.56-6.12.3-.39,1,.83,1.33,1.53.37.5-.69.71-.68,1.8.07a7,7,0,0,0,3.32.88,10.58,10.58,0,0,1,3.13.46c.58.24,1.1.45,1.18.47s.12-.31.12-.73ZM679.11,23.4c.16-.87,0-.93-1.81-.59-2.23.44-2.77.69-2.77,1.31,0,.23,1,.39,2.2.34C678.44,24.4,679,24.16,679.11,23.4Zm-6,.41a1,1,0,0,0-1,0c-.18.18.13.3.68.27s.73-.15.31-.31ZM230.92,22.63a2,2,0,0,0-1.29,0c-.36.15-.07.26.65.26s1-.13.64-.27Zm8.31-.49c.06-.29-.4-.59-1-.68-1.23-.16-1.62.69-.51,1.12C238.54,22.92,239.07,22.77,239.23,22.14Zm387.53-2c0-.11-.37-.34-.81-.5s-.67-.09-.49.2c.31.5,1.3.73,1.3.3Zm2.07-.32a.54.54,0,0,0-.55-.52c-.3,0-.4.24-.23.52s.43.52.56.52S628.84,20.07,628.83,19.79Zm3.93-.09c-1.33-.31-2.22-.28-2.57.07s.3.51,2,.46l2.56-.07Zm-390,.05c0-.27-.41-.5-.91-.52s0-.35,1.16-.73,1.85-.72,1.58-.75c-1.06-.11.77-1.26,2.1-1.32.78,0,1.5-.32,1.6-.64.35-1.06-1.47-1.25-3.34-.34s-1.87.83-2.53-.06c-.9-1.22-6.7-1.23-7.9,0s.06,2.43,2.08,1.84c1.35-.4,1.62-.32,1.86.57.17.62.57.94,1,.77s.71-.05.71.23a.63.63,0,0,1-.64.53c-.36,0,.05.33.91.7,1.6.69,2.34.61,2.33-.26Zm-3.13-2.54c0-.29.36-.52.81-.53s.66.23.49.52a1.11,1.11,0,0,1-.81.52A.5.5,0,0,1,239.58,17.21Zm10,2.59c1.22-.1,1.15-.92-.11-1.24s-5.82.66-5.47,1.21c.23.37,1.29.38,5.58,0Zm70.83-3.22c.46-.47.33-.76-.55-1.21a2.38,2.38,0,0,0-2.6.13c-.79.4-1.3.94-1.13,1.22C316.58,17.41,319.69,17.31,320.42,16.58ZM338.68,14a.52.52,0,1,0-.51.52.52.52,0,0,0,.51-.52Zm-15.47-.77a1,1,0,0,0-1,.05c-.17.17.14.29.69.26s.72-.15.31-.31Zm22.21-.35c0-.3-.23-.4-.52-.22s-.51.43-.51.55.23.23.52.23A.53.53,0,0,0,345.42,12.83Zm6.43-.83c.19-.51.07-.74-.31-.61-.77.26-1.19,1.44-.51,1.44.28,0,.65-.38.82-.83Zm-66.38-.84c.94-.39.91-.43-.26-.43a7.83,7.83,0,0,0-2.85.76l-1.55.76,1.81-.33a19.23,19.23,0,0,0,2.85-.76Zm64.36-.82c-.16-.16-.58,0-.93.36-.5.52-.44.58.3.29C349.71,10.79,350,10.5,349.83,10.34Zm36.08-.86a1.68,1.68,0,0,0,1.31-.61c.28-.44-.56-.5-3.19-.21a21.29,21.29,0,0,0-3.79.61c-.12.12.08.57.43,1,.58.68.87.68,2.48,0a9.94,9.94,0,0,1,2.76-.78Zm-34.28.46c0-.13-.23-.23-.52-.23a.53.53,0,0,0-.51.56c0,.3.23.4.52.22s.51-.43.51-.55Zm53.68-.87a2.45,2.45,0,0,1,1.9-.49c.49.15,1,.06,1.19-.21.45-.74-1.44-1-3.79-.58a12,12,0,0,1-3.29.19,1.62,1.62,0,0,0-1.82.86c-.62,1-.54,1.07,2.08,1a7.6,7.6,0,0,0,3.73-.81ZM357.1,8.39c1-.74.95-.77-.38-.77-1.69,0-3,.47-3,1.09s2.3.52,3.4-.32Zm40.45-.55c.4-.66-.29-.65-1.3,0-.67.44-.65.51.1.51a1.52,1.52,0,0,0,1.2-.52ZM109.36,178.65a2,2,0,0,1,1.29-1.67c.71-.33,1.29-.48,1.29-.33a7,7,0,0,1-1.28,1.68C109.46,179.64,109.37,179.66,109.36,178.65Zm70.06-.12a.54.54,0,0,1,.52-.56c.28,0,.52.1.52.23s-.23.37-.52.55S179.43,178.83,179.42,178.53Zm-9.84-1c-.41-.75-.42-1.08,0-1.08.63,0,1.32,1.44.9,1.87-.16.16-.55-.2-.87-.79Zm113.56-.12a1.71,1.71,0,0,1-1.1-1.12c-.3-1.09.63-3.74,1-2.81a1.13,1.13,0,0,0,1,.64.74.74,0,0,1,.74.74c0,.41.52.9,1.14,1.09l1.13.35-1.26.71a4.82,4.82,0,0,1-1.51.66c-.14,0-.64-.14-1.11-.26Zm579.12-3.81a15.87,15.87,0,0,0-3.85-.4c-3.85-.13-6.69-1.14-6.7-2.38,0-.54.67-.82,2.25-1,1.43-.11,2.14,0,1.93.36-.37.62,4.36,2.1,6.69,2.09.88,0,2.88.14,4.45.33,2.32.27,2.62.4,1.56.71-1.56.46-5.94.62-6.33.24ZM821,173.36a1,1,0,0,1,1-.05c.42.16.3.29-.31.32s-.85-.1-.68-.27Zm-691.27,3.78c.12-.36.95-.68,1.86-.71,1.32-.05,1.53.07,1.06.64C131.9,178,129.43,178,129.72,177.14Zm-2.21-.77c0-.72,1.9-1.6,4.29-2s3.73,0,3.21.8c-.16.27-.67.23-1.2-.09-.7-.44-1.46-.31-3.32.55C127.85,176.87,127.52,177,127.51,176.37Zm163-1.18a.54.54,0,0,1,.52-.56c.28,0,.52.1.52.23s-.23.37-.52.55S290.47,175.49,290.46,175.19Zm-139.08.38c0-.29-.36-.52-.79-.51s-1.07-.59-1.4-1.31c-.5-1.07-.46-1.47.2-2.14s.84-.72,1.16.25c.22.68.63.95,1.13.76s.74-.05.63.47.42,1.28,1.14,1.87l1.31,1.07-1.69,0c-.93,0-1.69-.21-1.69-.49Zm79.22-.88a2.21,2.21,0,0,1-.35-1.29c0-.72.39-1,1.59-1s1.54-.16,1.25-1c-.38-1.17.21-1.36,1.3-.4.61.54.63.51.11-.17s-.46-1,.11-1.82c.72-1,.74-1,1.53,0,1.1,1.42,1,1.74-.45,2.44-.72.33-1.3.88-1.29,1.23,0,.64-2.16,2.33-3,2.33A1.36,1.36,0,0,1,230.6,174.69Zm-109.61,0c-.2-.3-.91-.41-1.59-.24-1,.27-1.24.13-1.25-.87s.45-1.37,1.62-1.82c1.82-.7,2.61-.48,2.2.61-.46,1.24,1.44,1.81,3.84,1.15s2.91-.47,2.42.83c-.25.67-1,.86-3.61.88C122.82,175.24,121.18,175,121,174.69Zm-7.51-1.31a4.68,4.68,0,0,1,1.34-1.76c1.17-1.1,1.32-1.14,1.17-.29-.19,1-2.51,2.91-2.51,2ZM818.74,168a1.3,1.3,0,0,0-1.11-.21.56.56,0,0,1-.71-.29c-.18-.29,0-.53.35-.54s.48-.14-.09-.49c-1.06-.66-.34-1.23,1-.8.62.19,1,.47.83.63s.1.57.57.91c1,.72.21,1.44-.86.79Zm136.48-1.25c0-.63,2.55-1.76,4-1.77,1.66,0,1.51.83-.22,1.22-.79.18-2,.47-2.59.66s-1.17.14-1.17-.11ZM299,168.84c-.19-.31-.22-.68-.07-.83.37-.38,1.39.27,1.39.88s-.89.63-1.32,0Zm540.39-3.45c-1.54-.36-1-1.18.77-1.19.93,0,3-.16,4.54-.34l2.85-.31-1.27,1c-1.21,1-4.47,1.37-6.89.8Zm-538.56,2.46a.54.54,0,0,1,.52-.55c.28,0,.52.1.52.22s-.23.38-.52.56S300.8,168.15,300.79,167.85Zm619.64-4.36c0-.42.69-1,1.54-1.32s1.56-.46,1.56-.35a7.54,7.54,0,0,1-1.55,1.31c-1.21.87-1.55,1-1.55.36Zm-41.13-.11a1.4,1.4,0,0,1-.2-2.51c.88-.74,3.92-1.69,3.86-1.2-.21,1.61.2,2.17,1.58,2.16,2,0,3.15,1.28,1.51,1.73-1.82.51-5.74.4-6.75-.18ZM87.35,167.63c.35-.36.77-.52.93-.36s-.12.45-.63.65C86.91,168.21,86.85,168.15,87.35,167.63Zm811-5.38c-.18-.28.17-.52.78-.52s1,.23.78.51a1.11,1.11,0,0,1-.78.53,1.09,1.09,0,0,1-.78-.52Zm-817,5.17a1.08,1.08,0,0,1,1,0c.41.17.29.29-.31.32s-.86-.09-.69-.27Zm122.33-1.54a3.81,3.81,0,0,1-1-1.47,3.28,3.28,0,0,1,1-1.39,3.06,3.06,0,0,0,1-1.64c0-.81.47-.88,1.5-.24a1.43,1.43,0,0,1,.45,1.55c-.16.6-.07,1.22.19,1.38.52.31-.93,2.83-1.64,2.83a3.62,3.62,0,0,1-1.51-1Zm-117-.65a3.6,3.6,0,0,1,.89-1.79c.33-.22.15-.5-.48-.7-2.53-.81-2.58-.88-.93-1.41,1.08-.34,1.72-.91,1.82-1.62s.45-1.05.8-1c.76.15.85-1.23.11-1.68s-.7-1.82-.08-1.82c.26,0,.58.43.72,1,.2.75.62.9,1.94.7,1.56-.24,1.64-.18,1.1.83a3.73,3.73,0,0,0-.5,1.5c.24,1.39-.2,2.25-1.31,2.53a4.35,4.35,0,0,0-1.94,1.16c-.57.71-.53.78.24.49,1.33-.51,1.11.27-.54,1.86-1.83,1.78-2.27,1.78-1.84,0Zm270.83-.91c-.43-.68.18-1.65.8-1.28s.64,1.79,0,1.8a1.11,1.11,0,0,1-.81-.52Zm-126.37.16a.73.73,0,0,1,.75-.7,1.19,1.19,0,0,1,1,.69c.16.43-.12.69-.76.7S231.23,164.86,231.23,164.48Zm630.1-4.08c-1.58-.63-1.31-2.25.42-2.46a1.85,1.85,0,0,1,2,.92c1.16,1.83.11,2.51-2.38,1.54Zm-760.09,4.29c-1.21-.87-1-1.75.49-1.76.72,0,1.3.21,1.3.47s.51.56,1.13.64a1.75,1.75,0,0,1,1.35.81C105.78,165.66,102.41,165.54,101.24,164.69Zm5-1.57a1.74,1.74,0,0,1,1.76-.55c1.1.41.93.58-1.06,1.06C105.47,164,105.42,164,106.23,163.12Zm-55.81.31c-.85-.85-.23-1.71,1.25-1.72.92,0,1.46.2,1.27.5C52.47,163,50.8,163.8,50.42,163.43Zm251.89-1.85c0-.28.36-.52.8-.52s.67.23.5.51a1.12,1.12,0,0,1-.81.53.5.5,0,0,1-.49-.52Zm487.82-3.27c0-.29.87-.52,1.94-.53,1.45,0,1.75.13,1.17.51-1,.67-3.11.68-3.11,0Zm-458.77,2.3a3.19,3.19,0,0,1,.83-.79c.09,0,0,.35-.12.78s-.53.79-.82.79S331,161.06,331.36,160.61Zm17.39-.38c-.84-.35-.66-.45.9-.49,1.07,0,2,.19,2,.47,0,.62-1.41.63-2.85,0Zm458-3.07c-.63-.4-.55-.5.41-.51.67,0,1.06.21.88.5-.38.63-.32.63-1.29,0ZM208.37,161c0-.13.23-.38.51-.56s.52-.07.52.23a.53.53,0,0,1-.51.55c-.29,0-.52-.1-.52-.22Zm158.8-1.3c0-.65,1.46-1.16,1.79-.62.15.24-.09.58-.54.76-1.08.42-1.25.4-1.25-.14Zm584.2-3.8a2.91,2.91,0,0,1,1.56,0c.51.13.22.25-.64.26s-1.27-.09-.92-.23ZM74,161c0-.29-.8-.52-1.79-.51a5.86,5.86,0,0,1-4.85-3.34c-.61-1.14-5.63-2.55-7.08-2-1.91.75-.67-.44,1.46-1.4a8.22,8.22,0,0,0,2.72-1.73c.42-.72,2.28-1.31,5.32-1.67l1.82-.22-1.9.65c-2.62.88-2.86,1.27-1.55,2.47a11.8,11.8,0,0,1,2,2.64c.76,1.46,1,1.58,2.83,1.32,1.49-.21,1.93-.11,1.74.39s.62.89,2.38,1.32c3.1.77,3.81,2.28.82,1.74-1.19-.22-1.81-.13-1.81.25s-.46.58-1,.58S74,161.32,74,161Zm-7.66-7.22c.37,0,.33-.19-.13-.47-.84-.53-2.12-.17-2.11.6,0,.29.37.37.82.2A4.78,4.78,0,0,1,66.29,153.82Zm141,6.07a1.57,1.57,0,0,0-.68-1.32c-.26-.2.14-.37.89-.37,1.74,0,2.06.51.8,1.32-.55.35-1,.51-1,.37Zm600-4.5c-.68-.37-1-.82-.72-1s.94.14,1.45.7c1.09,1.18,1,1.23-.73.3Zm-697.54,4.08c-.43-.08-1.64-.29-2.7-.46l-1.93-.3,1.07-1.08c.89-.91,1.47-1,3.42-.78a4.92,4.92,0,0,0,3-.27c.5-.42,1-.29,1.86.53l1.19,1.09-1.15.31c-.63.17-1,.51-.86.76.27.43-2.19.56-3.93.21Zm16.86-.88a15.56,15.56,0,0,1,3.11-1c.9.06-3.57,2-4.66,2C124.49,159.61,125.19,159.15,126.61,158.59Zm62,.21c0-.24-.64-.74-1.43-1.1s-1.15-.77-.8-.89a2.89,2.89,0,0,1,1.93.7c1.36,1,1.71,1.71.83,1.72a.5.5,0,0,1-.53-.43Zm197.72-1.58a2.12,2.12,0,0,1,.73-1.36c.6-.51.69-.43.46.46-.33,1.3-1.18,1.94-1.19.9ZM101.07,159a1,1,0,0,1,1-.05c.42.16.29.28-.31.31s-.85-.09-.68-.26Zm237.28-1.8c-.18-.29,0-.38.49-.2.9.34,1.07.71.32.71A1.09,1.09,0,0,1,338.35,157.19ZM802,153.1a21.43,21.43,0,0,0-4.24-.31c-2,0-2.79-.14-2.49-.51s1.53-.43,3.46-.2c1.65.19,3.65.37,4.43.39s1.43.27,1.43.55c0,.58-.68.61-2.59.08Zm-698.21,4a1,1,0,0,1,.76-.44.47.47,0,0,1,.49.43c0,.24-.34.43-.76.44s-.63-.19-.49-.43Zm-9.4-.94c.35-1.19,2.14-3,3-3.07.22,0,.4.45.4,1a.92.92,0,0,0,1.08,1c1.61,0,.75.86-1.18,1.19A17.6,17.6,0,0,0,95,157c-.83.33-.92.21-.6-.86Zm240.72-1.31a2.6,2.6,0,0,1,1.4-.78c.47,0,.46.18,0,.78a2.18,2.18,0,0,1-1.4.78C334.48,155.66,334.48,155.55,335.14,154.87Zm33.18.25a1,1,0,0,1,1-.05c.42.16.29.29-.31.31s-.86-.09-.68-.26Zm388.93-2.64a3,3,0,0,1,1.56,0c.51.13.22.25-.64.26s-1.27-.09-.92-.23Zm-717.4,2.81a4.73,4.73,0,0,1-.08-2.06c.13-.7,0-1.38-.34-1.51s0-.19.58-.12c1.44.15,2.22.83,1,.84-.77,0-.87.3-.57,1.82.36,1.83,0,2.48-.55,1Zm718.43-4.37a2.91,2.91,0,0,1,1.56,0c.5.12.22.24-.64.26s-1.27-.09-.92-.23Zm-7.91-1c-1-1-.53-1.65,1.29-1.87,1.07-.12,1.32.1,1.46,1.28s0,1.42-.86,1.43A3.12,3.12,0,0,1,750.37,149.94Zm-13.35.13a6.63,6.63,0,0,0-2.07-.75c-1.27-.29-.81-.37,1.8-.28a14.06,14.06,0,0,1,3.85.44c.19.19,0,.34-.4.35a9.16,9.16,0,0,0-1.78.3,1.79,1.79,0,0,1-1.4-.06ZM19.94,154.36a2.55,2.55,0,0,1,2.2-2.26c.84,0,.92.12.27.3a2,2,0,0,0-1.19,1.24C20.94,154.54,19.94,155.1,19.94,154.36Zm103-.89c-.17-.27.15-.74.71-1,1.09-.59,1.94,0,1.35,1a1.33,1.33,0,0,1-2.06,0Zm602-5.06c-2-.89-2.06-.92-.79-1.36.71-.25,1.41-.47,1.55-.49a2.86,2.86,0,0,0,.78-.35,2.65,2.65,0,0,1,1.43-.18c1.75.27.88-.69-.92-1-1-.18-1.82-.55-1.82-.82,0-.65.86-.63,2.16.05a13.32,13.32,0,0,0,3.73.82c3.06.3,3.5.49,2.11.95a19.52,19.52,0,0,0-2.11.88,5.18,5.18,0,0,1-2.73.24c-1.19-.23-1.58-.12-1.58.46a.79.79,0,0,0,.81.76c.45,0,.67.23.5.51-.41.67-.61.64-3.12-.45Zm21.54.33c-.61-.39-.46-.5.67-.51.85,0,1.33.2,1.14.5-.39.65-.81.65-1.81,0Zm-9.66-2.59c-.26-.41,2.51-.93,6.78-1.26l3.11-.24-2.63.44a15.91,15.91,0,0,0-3.67,1c-1.11.61-3.22.64-3.59.06Zm-30.56-.93c-1.93-1-2-1.08-.94-1.55a2.9,2.9,0,0,1,2-.1,3.54,3.54,0,0,0,1.59.29c.36-.06.65.12.65.39a4.87,4.87,0,0,0,.32,1.32c.44,1.12-1,1-3.66-.35Zm40.85-.95a1.07,1.07,0,0,1,1-.05c.42.17.3.29-.31.32s-.85-.09-.68-.27Zm-55.69-2.43c0-.28.36-.52.81-.52s.66.23.49.52a1.14,1.14,0,0,1-.81.52.5.5,0,0,1-.49-.52ZM51.18,144.46c.64-1.84,1.72-3,2.87-3,.56,0,.52.21-.17,1-.5.55-.78,1.21-.62,1.46s-.38.86-1.19,1.34l-1.48.89Zm24.23,1c0-.27.34-.5.77-.51s.78.09.78.2-.35.34-.77.51S75.41,145.72,75.41,145.44Zm-17-1c1.13-1.73,2.39-1.84,2.08-.17-.18,1-.56,1.32-1.54,1.33C57.7,145.58,57.68,145.52,58.4,144.41Zm10.25-.11c0-.54,1.63-1.92,2.27-1.92a.79.79,0,0,1,0,1.55,4.86,4.86,0,0,0-1.47.33c-.45.17-.82.19-.82,0Zm9.86-.65c0-.12.23-.37.51-.55s.52-.08.52.22a.53.53,0,0,1-.51.56C78.74,143.88,78.51,143.78,78.51,143.65ZM64,143a.54.54,0,0,1,.52-.55c.28,0,.52.1.52.22s-.23.38-.52.56S64,143.27,64,143Zm-8.62-.71a2.66,2.66,0,0,1,.28-1.82c.46-.87.42-1.08-.23-1.07-.44,0-.8-.23-.8-.52,0-.59.32-.63,1.93-.21a1.94,1.94,0,0,1,.91,3.34c-1.06,1.2-1.7,1.28-2.09.28Zm12.87-1.18c-.57-.64-.49-.76.51-.77a11.11,11.11,0,0,0,2.36-.34c.84-.23,1.16-.1,1.17.48a1.21,1.21,0,0,0,.65,1.05c.36.14-.4.27-1.68.29a4.44,4.44,0,0,1-3-.71Zm5.86.24a1.36,1.36,0,0,1,1.07-.53c.41,0,.75.23.75.51s-.48.53-1.07.53-.92-.23-.75-.51Zm-43.81-.45c0-.54.09-.85.26-.68a1,1,0,0,1,0,1C30.42,141.6,30.29,141.48,30.27,140.87ZM39,139c-1.37-1.52-1.49-3.16-.24-3.17.41,0,.74-.23.74-.52s.46-.52,1-.53c1,0,1.36.83,1.11,2.59a14.27,14.27,0,0,0-.08,2C41.64,140.9,40.62,140.77,39,139Zm14.68,1.09a1.09,1.09,0,0,1,1,0c.41.17.29.29-.31.32s-.86-.1-.69-.27Zm-9.17-.88c.17-.45.54-.82.82-.82.68,0,.26,1.17-.51,1.44-.38.13-.5-.11-.31-.62ZM8.09,136.5c-.22-.36-.15-.47.18-.27a.56.56,0,0,0,.82-.31c.18-.47.27-.48.3,0,.07.89-.85,1.33-1.3.62Zm53-.29a1.15,1.15,0,0,1,.84-.52c.28,0,.37.23.2.52a1.14,1.14,0,0,1-.84.52C61,136.73,60.9,136.5,61.07,136.21ZM968.7,125.9a40.17,40.17,0,0,0-7.28-2.21,7.27,7.27,0,0,1-1.3-.3,12.77,12.77,0,0,0-2.34-.19c-5.8-.14-7-.26-6.8-.66s-.22-1-.82-1.6l-1.1-1.16,3.05.25c6.6.56,11.79,1.32,14,2.06a24.2,24.2,0,0,0,6.21.74c4.39,0,5,.62,1.82,2-1.14.48-2.07,1.17-2.07,1.53,0,.84-.28.81-3.38-.44ZM37.43,131.77a2.25,2.25,0,0,1,.68-1.55c.91-.77,1.87.18,1.53,1.51s-2.2,1.34-2.21,0ZM2.65,131.2a9,9,0,0,1,2.19-3.13c1.2-1.29,3.35-3.64,4.76-5.23,2.41-2.71,3.87-3.61,3.88-2.39A.5.5,0,0,1,13,121c-.27,0-.64.53-.84,1.17a11.17,11.17,0,0,1-1.29,2.52c-1.1,1.59-.51,2.55,1.54,2.54,1.24,0,1.25,0,.34,1-1.15,1.29-2.23,1.37-2.14.15,0-.57-.36-1-1.09-1.07s-1.23.18-1.47,1.18-.68,1.34-1.5,1.34A5.15,5.15,0,0,0,4,130.93C2.9,131.82,2.66,131.87,2.65,131.2ZM34,129.44a5.57,5.57,0,0,1,1-3.39C36,125,36,125,35,124.93a13.12,13.12,0,0,1-2-.26,21.91,21.91,0,0,0-2.86-.3,3.78,3.78,0,0,1-2.45-.88c-.79-1-.9-3.33-.14-2.86,1,.62,3.09-.27,3.08-1.32,0-1.63,2-2.63,5.29-2.65,1.65,0,3-.2,3-.43s.78-.33,1.74-.23c1.47.16,1.81,0,2.13-1a4.87,4.87,0,0,0,.28-1.72c-.2-1.06,1.51-1.76,2.85-1.15s1.67,1.34.38,1.41c-.54,0-.65.15-.26.3,1,.42.76,1.2-.64,1.74-1.7.66-1.63,1.83.15,2.48,3.81,1.4,3.64,1.29,2.38,1.52a3.31,3.31,0,0,0-1.74,1,2.59,2.59,0,0,1-1.73.76c-1.39,0-3.42,1.39-3.41,2.33,0,1.45-1.62,1.32-3.07-.24-1.2-1.3-1.55-1.45-2-.84-.93,1.12,3.72,3.26,7.36,3.39.52,0,.79.27.61.57a1.12,1.12,0,0,1-1.2.31c-.48-.13-1.61-.38-2.51-.56-1.48-.29-1.62-.21-1.37.74a1.08,1.08,0,0,1-.68,1.47,1.66,1.66,0,0,0-1,1.44c0,.71-.29,1-.94.88a2.28,2.28,0,0,0-1.63.41c-.54.46-.66.11-.6-1.74ZM33.45,121c.46-.47.73-1,.6-1.09-.37-.36-2.4.86-2.4,1.44C31.66,122.14,32.52,122,33.45,121Zm-6.92,10c0-.55,1-.79,1.29-.31.18.29,0,.53-.48.53S26.53,131.15,26.53,131ZM947.13,122c0-.28.1-.51.23-.52s.37.24.55.52.08.52-.22.52A.55.55,0,0,1,947.13,122Zm-1.93-.3a1,1,0,0,1,1,0c.42.16.29.28-.31.31s-.85-.09-.68-.27ZM977,119.09c.25-.42,0-.51-.75-.31s-1.25.09-1.41-.16c-.33-.53,2.34-.66,3.62-.18s1,1.23-.5,1.24C977.09,119.69,976.76,119.48,977,119.09ZM48.08,124.64c.21-.54,0-.7-.79-.54-1.58.32-1.35,0,1-1.43,2.71-1.65,5.13-1.44,4.79.41-.26,1.38-.64,1.55-1.52.69-.41-.41-.87-.27-1.65.53-1.25,1.27-2.22,1.45-1.81.34ZM0,122.49a2.44,2.44,0,0,1,1-1.84,2.21,2.21,0,0,0,1-1.61A3,3,0,0,1,3,117.22c1.13-1,3.71-1.17,3.72-.2s-2.35,3-3.36,3a.92.92,0,0,0-.77,1,2.72,2.72,0,0,1-1.28,1.83C.05,123.64,0,123.63,0,122.49Zm16,.74c-.66-.64.28-1.77,1.48-1.77s1.18.1.6,1S16.56,123.83,16,123.23Zm929.88-6.72c-1.3-1-.67-1.61.86-.89.64.31.87.58.49.6s-.53.27-.35.56c.43.69.2.63-1-.27Zm49.49-4.77a10.88,10.88,0,0,0-3.69-.15c-1.41.22-2,.09-2.2-.51a1.89,1.89,0,0,0-1.76-.81c-2.69,0-5.26-1-5.11-1.92.1-.69.54-.86,1.89-.73a6.07,6.07,0,0,1,2.28.57,22,22,0,0,0,4.68,1c4.12.57,8.57,2,8.58,2.73C1000,112.38,997.66,112.31,995.33,111.74ZM14,118.09c0-.53,2.25-3.37,2.67-3.38.8,0,.46,3-.37,3.33C15.26,118.43,14,118.46,14,118.09Zm9.34-.82c-.72-.23-1-.44-.65-.47.78-.07.86-1.61.08-1.61a4.08,4.08,0,0,0-1.47.51c-1,.52-3.16.2-3.16-.47,0-.22.71-.7,1.59-1.07A5.35,5.35,0,0,0,23,109.54c0-1,.32-1.4,1.19-1.53.64-.09,1.16.06,1.17.34s.59.28,1.55-.09c1.28-.49,1.7-.45,2.4.24,1,1,.57,2-.86,2-.55,0-1,.24-1,.53s-.32.52-.71.52c-1.6,0-2,1.44-1.21,3.9S26.19,118.16,23.32,117.27ZM989,107.42a7.87,7.87,0,0,0-2.2-.46c-2.5-.29-2.88-.66-1.31-1.27a3.3,3.3,0,0,1,2.81.3c2,1,2,1,1.41,1.35a.66.66,0,0,1-.71.08ZM38.1,111.85c.37-1.79,1.23-2.7,1.91-2,.5.49-1,3.72-1.74,3.72-.32,0-.39-.65-.17-1.68Zm4.42-.63c-.46-.55-.33-.77.58-1,1.58-.43,2.36.44,1,1.15C43.37,111.78,43,111.75,42.52,111.22Zm-12.66-5.76a2,2,0,0,1,1.29,0c.36.14.07.26-.64.27s-1-.11-.65-.26Zm-5.74-2.28c.35-.35.77-.52.93-.36s-.12.45-.63.65C23.68,103.76,23.62,103.7,24.12,103.18Zm1.25-3c.33-.55.92-.88,1.3-.73.93.35.87,1-.13,1.39C25.11,101.4,24.74,101.2,25.37,100.18Zm955.17-8.36a2,2,0,0,1,1.29,0c.36.14.07.26-.64.26s-1-.11-.65-.25ZM23.17,97c-1-.63-.27-1.24.82-.64.48.27.67.63.4.79A1.32,1.32,0,0,1,23.17,97ZM23.69,95c0-.28.72-.89,1.62-1.36,1.31-.69,1.7-.72,2-.17s.76.56,2.18,0c2.11-.79,3.66-.85,3.23-.14a2.54,2.54,0,0,1-1.78.53,3.07,3.07,0,0,0-2.1.79c-.72.88-5.19,1.14-5.19.31ZM39,88.62c-1-.35-1-.38.16-.75,1.36-.45,1.75-.27,1.23.55a1.22,1.22,0,0,1-1.39.2Zm-9.49-3.37a1.08,1.08,0,0,1,1,0c.41.17.29.29-.31.32s-.86-.09-.69-.27Zm960-8.4c-.47-.55-.41-.79.25-1,.87-.34,2.29.46,2.29,1.3s-1.88.54-2.54-.25Zm-15.12-2a2.08,2.08,0,0,0-1.14-.77,2.38,2.38,0,0,1-1.23-.72,4.81,4.81,0,0,0-1.4-1c-.45-.16-.49-.42-.14-.81,1.29-1.4,8.19,2,7.24,3.59-.44.72-2.63.5-3.33-.33Zm9.36-3a5.73,5.73,0,0,0-2.71-.14,3.9,3.9,0,0,1-2.37-.2c-.78-.45-.65-.54.81-.57s1.68-.19,1.42-.86-.08-.77,1-.51c2,.49,4.6,2.17,3.81,2.48a3.57,3.57,0,0,1-1.94-.2Zm-17.3-.66a2,2,0,0,1,1.3,0c.36.14.07.26-.64.27s-1-.11-.66-.26ZM48.48,76.89c0-.39,4-2.38,4.76-2.37.37,0,.21.29-.36.62a10.56,10.56,0,0,0-1.72,1.29C50.52,77.08,48.48,77.42,48.48,76.89Zm-7.22-.79c-.68-.27-1.12-.62-1-.78s1,.07,1.77.5c1.63.87,1.14,1.05-.81.28Zm933-7.77c0-.29.1-.52.23-.52s.37.23.55.51.08.52-.23.52a.53.53,0,0,1-.55-.51ZM55.19,73.21c.74-.91,1-1,1.05-.33,0,.25-.38.61-.85.79-.71.28-.74.2-.2-.46ZM949.37,59.83c-2-2.32-2.87-4.63-2-5s3,.53,3,1.29c0,.44.78.66,2.31.65,3.11,0,4.13,1,2.38,2.35-.71.55-1.66,1.36-2.11,1.79-1.21,1.17-1.79,1-3.54-1.11ZM94.8,64.31c-.44-.71.38-3.11,1-2.91.88.29.87,3.3,0,3.31a1.28,1.28,0,0,1-1-.4Zm813-8.51c0-.29.1-.52.22-.52s.38.23.55.51.08.52-.22.53A.54.54,0,0,1,907.77,55.8Zm-16.59-2.86c-.92-1.06-1.43-2-1.13-2.11.81-.28,3,1.6,2.78,2.35-.12.36.16.64.61.64s.82.23.82.51c0,1.12-1.5.44-3.08-1.39Zm5.42.86c-.53-.57-.72-1-.43-1a4.38,4.38,0,0,1,1.72,1c.86.73,1,1,.43,1A3.05,3.05,0,0,1,896.6,53.8ZM101.55,59.13c-.17-.28-.21-.51-.07-.51a5.77,5.77,0,0,0,1.06-.33c.54-.21.83,0,.83.52,0,.91-1.3,1.15-1.82.32ZM92,58.68c0-.29.46-.52,1-.53s1,.23,1,.52-.47.52-1,.52S92,59,92,58.68Zm817.75-6a3.08,3.08,0,0,0-1.76-.36c-.59.11-.89-.29-1-1.39-.1-.85-.42-1.63-.72-1.72-.91-.3-.61-1.13.4-1.14,1.53,0,1.77-.68.48-1.38L905.88,46,907,46c1.05,0,5.5,2.55,6.13,3.55.15.24-.74.14-2-.22-1.91-.56-2.25-.55-2.25.07a.72.72,0,0,0,.7.72c.38,0,.69.22.7.5s.57.65,1.26.82,1.17.57,1,1c-.32.85-1.59.94-2.88.19Zm21.36-.23c0-.07-.13-.55-.23-1.07-.15-.75,0-.81.55-.33.41.33.61.81.46,1.06-.27.44-.69.62-.78.34ZM81.8,56.64c-.55-.87.1-1.16,1.67-.76,1.34.34,1.37.41.42.8-1.43.59-1.7.59-2.09,0Zm16.88-.31c0-.91.31-1,.76-.33a.6.6,0,0,1-.23.81C98.92,57,98.68,56.77,98.68,56.33Zm797.4-6.14a7.32,7.32,0,0,0-2.9-1.82c-1.67-.35-4.94-2.6-4.33-3a10,10,0,0,1,3.17.16c2.65.41,4.73,1.87,4.78,3.36,0,.31.62.84,1.36,1.16s1.18.83,1,1.12c-.55.9-1.57.57-3.09-1ZM100.49,55.51c-.68-.29-.77-.45-.26-.47a3.22,3.22,0,0,1,1.56.46c.95.61.13.61-1.3,0ZM887,50.23c0-.28.52-.52,1.16-.52,1,0,1,.1.4.51-1,.66-1.56.66-1.56,0Zm-14.59-.13a18.82,18.82,0,0,0-4.15-.66c-2.11-.19-3.84-.59-3.85-.87s1.78-.59,4-.68c3.15-.12,4.1,0,4.33.6.34.88.07,2-.37,1.61Zm25.46-3.53c0-.26.47-.35,1-.2s1,.35,1,.46-.46.2-1,.21S897.85,46.83,897.84,46.57Zm-23.9-.42c-1-.58-.54-.93,1.55-1.37,1.29-.26,1.66-.18,1.5.33a2.51,2.51,0,0,1-3,1Zm25-3.24a5.72,5.72,0,0,1-1.16-2.59c0-.6-.35-1.06-.78-1.06s-.78-.22-.79-.51.58-.52,1.3-.53c.91,0,1.29-.29,1.29-1a3,3,0,0,1,1-1.87c1-.86,1.05-.85,2.17.25,1.38,1.37,2,5,.93,5.73-.51.33-.52.44,0,.44a.6.6,0,0,1,.65.52c0,.29-.46.53-1,.53s-1,.35-1,.79c0,1.27-1.28.89-2.5-.74ZM124.7,46.21a1.06,1.06,0,0,1,1-.05c.41.16.29.29-.31.32s-.86-.1-.69-.27Zm761.46-6.36c-.84-.53-1.7-.86-1.9-.73s-.5-.12-.67-.55c-.39-1,.67-1,2.59,0a7,7,0,0,0,2.47.76c.8,0,.86.13.33.78-.79,1-.92.95-2.82-.25Zm-30.94-3.68c0-1.19.18-1.3,2.32-1.31a6,6,0,0,1,2.34.22c0,.7-2.42,2.37-3.45,2.38S855.22,37.18,855.22,36.17ZM142.31,40.38a1.07,1.07,0,0,1,1-.05c.42.17.3.29-.31.32s-.85-.09-.68-.27Zm6.34-1c1.14-.47,2.53-1.11,3.1-1.43l2.07-1.16c2.89-1.62,7.49-4.79,7.49-5.16a6.16,6.16,0,0,1,1.58-1.88c1.61-1.5,5.14-2.95,5.14-2.12s-5.71,6.22-6.51,6.23a2.79,2.79,0,0,0-1.6,1,3,3,0,0,1-1.84,1.05c-1.67,0-3,1-2.71,2,.26.79-.1,1-2.43,1.25-1.5.18-3.55.47-4.55.64l-1.81.33ZM904.74,34c-.56-.9.07-1.1.79-.24.41.49.46.78.11.79A1.24,1.24,0,0,1,904.74,34Zm-8.55-2a.52.52,0,1,1,.52.52A.52.52,0,0,1,896.19,32ZM813.6,30.43c-.5-.31-.21-.45.94-.46a3.22,3.22,0,0,1,1.89.36c.35.56-2,.64-2.83.1Zm74.27-.71a.78.78,0,0,1,.76-.78c.46,0,.64.3.47.78s-.51.78-.76.78S887.87,30.15,887.87,29.72ZM858,28.86c-.67-1-.73-1.46-.28-1.92.81-.82,3,1.24,2.51,2.41S859,30.37,858,28.86Zm-58.46.34a2.91,2.91,0,0,1,1.56,0c.5.13.22.25-.64.26s-1.27-.09-.92-.23ZM863,28.09c0-.23.46-.54,1-.69s1-.09,1,.13-.46.54-1,.69S863,28.31,863,28.09Zm-44.38-1.27c-.18-.29-.09-.52.19-.52a1.09,1.09,0,0,1,.84.51c.18.28.1.52-.19.52a1.14,1.14,0,0,1-.84-.51ZM207.46,25.47c0-.43.2-.78.46-.78s.6.34.77.77,0,.78-.46.78A.77.77,0,0,1,207.46,25.47Zm602-3.65a3.13,3.13,0,0,1,.49-1.17c.36-.59.63-.63,1.09-.18a1,1,0,0,1,.25,1.16c-.38.64-1.84.79-1.83.19Zm74.76-1.62-1.26-1,1.25-.4c.69-.23,1.34-.43,1.45-.46s.27.58.36,1.37c.19,1.67-.1,1.74-1.8.45ZM220.69,24.6a4.6,4.6,0,0,0-2.63-.5c-1.36,0-2.31-.22-2.31-.57s.57-.47,1.62-.27a31.29,31.29,0,0,0,4.54.31h2.92l-1.74.77c-2.07.91-2,.9-2.4.25ZM705.27,21a1,1,0,0,1,1-.05c.41.16.29.28-.32.31s-.85-.09-.68-.26Zm-5.85-.72c-1-.23-2.63-.55-3.61-.71-2.56-.41-2.63-.77-.15-.79a4.08,4.08,0,0,1,2.45.5,2.66,2.66,0,0,0,1.85.51c.84,0,1.53.22,1.53.51s0,.49-.12.46S700.42,20.56,699.42,20.32Zm-490.68,2.8-2.08-.35,2.7-.1c1.48-.05,2.84.15,3,.43.36.56-.46.57-3.63,0Zm477.43-5.28c-.39-.62,1.14-.63,2.59,0,.88.37.78.44-.61.48a2.82,2.82,0,0,1-2-.47Zm-9.58-1.54c-3.67-.69-3.69-.94,0-.67,3,.22,3.27.16,2.46-.49-1.22-1-1.15-1.39.25-1.39,1.19,0,3.26,1,2.12,1-.34,0-.76.48-.94,1.06-.35,1.13-.44,1.14-3.85.49ZM670.19,15a2.06,2.06,0,0,1,1.3,0c.35.15.06.27-.65.27s-1-.11-.65-.26Zm59.43-.88a1,1,0,0,1,1-.05c.42.16.29.28-.31.31s-.85-.09-.68-.26Zm-67-.13c-.65-.12-1-.44-.88-.71a.55.55,0,0,1,.74-.22,9.47,9.47,0,0,0,2.54.33c1.16,0,2,.27,1.84.51C666.62,14.35,664.76,14.39,662.65,14Zm12-.54a1,1,0,0,1,1-.05c.41.16.29.29-.32.31s-.85-.09-.68-.26Zm-451.12,2c0-.46.27-.73.61-.62,1,.31,1.13,1.43.22,1.43A.82.82,0,0,1,223.48,15.46ZM652.53,13c-1.8-.17-2.85-1.16-1.25-1.17,2.34,0,5.53.68,4.92,1.07a2.15,2.15,0,0,1-1.2.37L652.53,13Zm5.12-.08c-.15-.23.42-.33,1.26-.21a3.43,3.43,0,0,1,1.54.42C660.45,13.54,657.91,13.35,657.65,12.94Zm-11.4-.88c-.64-.64-.36-1.12.56-1,.5.09,1.26.2,1.69.24s.46.2-.26.52C646.91,12.45,646.68,12.47,646.25,12.06Zm-132-.12a1,1,0,0,1,1,0c.42.16.29.29-.31.32s-.85-.1-.68-.27Zm71.85-1.55a2,2,0,0,1,1.3,0c.36.14.07.26-.65.26s-1-.11-.65-.25Zm-264.55,0c0-.29.53-.52,1.17-.52.94,0,1,.1.39.51-1,.66-1.55.66-1.56,0Zm-10.38-.94a.53.53,0,0,1,.51-.55c.29,0,.52.1.52.23s-.23.37-.51.55S311.15,9.8,311.15,9.49ZM224,8.81c0-.12.36-.35.8-.52s.67-.1.49.2C225,9,224,9.23,224,8.81Zm86.66-.9a3.38,3.38,0,0,1,1.55-.51c.69,0,.69,0,0,.5a3.42,3.42,0,0,1-1.56.51C309.93,8.42,309.93,8.36,310.62,7.91ZM474.33,6.78c-.52-.83.05-1.15,1.34-.75.9.28,1,.46.44.82C475.16,7.46,474.74,7.44,474.33,6.78Zm-167.8-.66-1.23-.66L307,5.08a3.47,3.47,0,0,1,2-.06c.17.17-.08.31-.56.31-1,0-1.15.84-.21,1.21.36.15.42.26.14.25A5.41,5.41,0,0,1,306.53,6.12ZM645.59,4.06c-.79-.3-.57-.41.91-.44a4.87,4.87,0,0,1,2,.15c0,.46-1.91.65-2.86.29ZM473.68,4.2c-1.56-.61-1.47-.88.26-.76,3,.19,3.06.2,2.21.76s-.95.6-2.47,0ZM502,4c.35-.36.76-.52.93-.36s-.13.45-.64.64c-.74.29-.8.23-.29-.28Zm-31.52-.25a.52.52,0,1,1,.52.52A.51.51,0,0,1,470.44,3.72Zm-119.22.49a1,1,0,0,1,1,0c.41.16.29.29-.31.32s-.86-.1-.69-.27Zm138.94-.85c0-.12.23-.37.51-.55s.52-.08.52.22a.54.54,0,0,1-.51.56c-.29,0-.52-.1-.52-.23ZM507.54,3c2.14-.57,6-.66,6-.14,0,.24-1.69.46-3.76.49-2.72,0-3.33-.05-2.21-.35Zm-96.8-1.43c1-.67,8.15-.72,8.56-.06.21.33-1.41.53-4.5.54-3.32,0-4.59-.13-4.06-.48Zm94.71-.6c-.85-.33-.64-.48,1.13-.79a5.52,5.52,0,0,1,3.12.15c.82.47.77.54-.45.56a9.86,9.86,0,0,0-2.07.25,3.09,3.09,0,0,1-1.73-.17ZM524,1a1.06,1.06,0,0,1,1,0c.41.16.29.28-.31.31s-.86-.09-.69-.27Zm6.43-.12c-.13-.21.32-.39,1-.39s1.25.17,1.25.38-.45.39-1,.4a1.71,1.71,0,0,1-1.25-.39Zm-28-.28a2,2,0,0,1,1.3,0c.36.14.07.26-.65.27s-1-.11-.65-.26Z"/></g></g></svg>