<svg width="91" height="114" viewBox="0 0 91 114" fill="none" xmlns="http://www.w3.org/2000/svg">
<path d="M17.4272 18.2792H18.1772V17.5292V17.3648C18.1772 12.3277 22.2668 8.2312 27.289 8.2312C32.3112 8.2312 36.4009 12.3277 36.4011 17.3648V17.5292V18.2792H37.1511H53.8491H54.5991V17.5292V17.3648C54.5991 12.3277 58.689 8.2312 63.711 8.2312C68.733 8.2312 72.8228 12.3276 72.8228 17.3648V17.5292V18.2792H73.5728H74.1152C79.3836 18.2792 83.6738 22.5765 83.6738 27.8605V73.3875C83.6738 78.6714 79.3836 82.9687 74.1152 82.9687H16.8848C11.6164 82.9687 7.32617 78.6714 7.32617 73.3875V27.8605C7.32617 22.5765 11.6164 18.2792 16.8848 18.2792H17.4272ZM30.7525 23.3672H31.5025V22.6172V17.3648C31.5025 15.0382 29.6145 13.1437 27.289 13.1437C25.2192 13.1437 23.4962 14.6445 23.1422 16.6148H23.0755V17.3648V22.6172V23.3672H23.8255H30.7525ZM12.9746 40.9358H12.2246V41.6858V73.3875C12.2246 75.9609 14.3129 78.0562 16.8848 78.0562H74.1152C76.6871 78.0562 78.7754 75.9609 78.7754 73.3875V41.6858V40.9358H78.0254H12.9746ZM67.1744 23.3672H67.9244V22.6172V17.3648C67.9244 15.0383 66.0366 13.1437 63.711 13.1437C61.6413 13.1437 59.9181 14.6444 59.5641 16.6148H59.4973V17.3648V22.6172V23.3672H60.2473H67.1744ZM54.5991 23.9417V23.1917H53.8491H37.1511H36.4011V23.9417V25.8234C36.4011 27.1815 35.303 28.2797 33.9519 28.2797H20.6264C19.2753 28.2797 18.1772 27.1815 18.1772 25.8234V23.9417V23.1917H17.4272H16.8848C14.3129 23.1917 12.2246 25.287 12.2246 27.8605V35.2733V36.0233H12.9746H78.0254H78.7754V35.2733V27.8605C78.7754 25.287 76.6871 23.1917 74.1152 23.1917H73.573H72.823V23.9417V25.8234C72.823 27.1815 71.7248 28.2797 70.3737 28.2797H57.0483C55.6972 28.2797 54.5991 27.1815 54.5991 25.8234V23.9417Z" fill="#FA8BAC" stroke="white" stroke-width="1.5"/>
<path d="M56.0379 48.2702L42.1424 61.5852L35.5677 54.996C34.3185 53.7439 32.2925 53.7441 31.0434 54.996C29.794 56.248 29.794 58.2781 31.0434 59.5303L39.8303 68.3365C40.4543 68.9619 41.2729 69.2755 42.0926 69.2755C42.8882 69.2755 43.6844 68.9798 44.3033 68.3867L60.4597 52.905C61.7369 51.6813 61.7821 49.6517 60.561 48.3717C59.3403 47.0922 57.3154 47.0463 56.0379 48.2702Z" fill="#FA8BAC"/>
</svg>
