<svg width="86" height="108" viewBox="0 0 86 108" fill="none" xmlns="http://www.w3.org/2000/svg">
<mask id="path-1-inside-1" fill="white">
<path d="M41.065 66.9169L31.9146 80.905C31.3147 81.8146 30.5416 82.5959 29.6397 83.2039C28.7379 83.8118 27.7252 84.2345 26.66 84.4474C26.1503 84.5501 25.6318 84.6021 25.112 84.6029C23.5788 84.608 22.0799 84.1472 20.812 83.281C19.926 82.6787 19.1721 81.9006 18.5966 80.9947C18.021 80.0887 17.636 79.0741 17.4652 78.0131C17.2945 76.9522 17.3415 75.8673 17.6035 74.8253C17.8655 73.7833 18.337 72.8062 18.9888 71.954L31.5878 55.538C32.012 54.9903 32.6355 54.6344 33.3209 54.5485C34.0063 54.4627 34.6977 54.6539 35.2428 55.0801C35.7879 55.5063 36.1422 56.1326 36.2277 56.8212C36.3132 57.5099 36.1228 58.2044 35.6986 58.7521L23.0996 75.1681C22.8779 75.4603 22.718 75.7949 22.6298 76.1515C22.5415 76.508 22.5267 76.8789 22.5863 77.2414C22.6459 77.6039 22.7787 77.9503 22.9764 78.2594C23.1741 78.5685 23.4326 78.8337 23.736 79.0388C24.3067 79.4149 25.0025 79.5485 25.671 79.4103C26.063 79.3312 26.4357 79.1752 26.7677 78.9514C27.0997 78.7275 27.3845 78.4401 27.606 78.1057L36.7564 64.0657C36.9298 63.7556 37.1649 63.4848 37.4471 63.2699C37.7292 63.0551 38.0523 62.9009 38.3963 62.8169C38.7403 62.7329 39.0978 62.7209 39.4466 62.7817C39.7954 62.8425 40.128 62.9748 40.4237 63.1703C40.7194 63.3658 40.9719 63.6203 41.1655 63.9181C41.3591 64.2158 41.4897 64.5504 41.549 64.9011C41.6084 65.2517 41.5953 65.6108 41.5105 65.9561C41.4258 66.3014 41.2712 66.6255 41.0564 66.9082L41.065 66.9169ZM77.0216 3.84486C73.5816 1.36518 68.9032 1.15782 63.9238 3.27462C58.9535 5.55612 54.6937 9.15177 51.6 13.6772C47.1194 19.993 45.0296 27.2593 46.01 33.1172C46.1938 34.2765 46.0904 35.4635 45.709 36.5732C45.5036 37.2201 45.5591 37.9221 45.8635 38.5283C46.168 39.1346 46.697 39.5966 47.3369 39.815C47.9769 40.0335 48.6766 39.9909 49.2856 39.6965C49.8946 39.4021 50.3644 38.8794 50.5938 38.2407C51.2515 36.3174 51.4258 34.2605 51.1012 32.2532C50.353 27.7863 52.159 21.8247 55.8054 16.7012C58.3495 12.9501 61.86 9.96376 65.962 8.06118C67.854 7.25766 71.423 6.19494 74.0546 8.06118C76.6862 9.92742 76.8496 13.6858 76.712 15.7421C76.2531 20.2621 74.5794 24.5717 71.8702 28.2097C68.2238 33.3937 63.1928 37.0138 58.7466 37.7569C56.7754 38.0833 54.9129 38.8869 53.32 40.0983C52.892 40.4275 52.4842 40.7824 52.0988 41.161C51.6357 41.6467 51.3787 42.2941 51.3819 42.9666C51.3851 43.6391 51.6484 44.284 52.1161 44.7652C52.5839 45.2463 53.2194 45.5259 53.8886 45.545C54.5577 45.5642 55.208 45.3212 55.7022 44.8676C55.9381 44.6363 56.1879 44.4199 56.4504 44.2196C57.3598 43.5168 58.425 43.0455 59.555 42.8458C65.36 41.8695 71.5606 37.5149 76.0412 31.1905C79.3035 26.7667 81.3044 21.5335 81.829 16.0532C82.1902 10.6359 80.4788 6.28998 77.0216 3.8103V3.84486ZM39.8524 35.6314C40.6175 33.8087 40.9054 31.8196 40.6887 29.8535C40.4719 27.8873 39.7577 26.0097 38.614 24.3994L23.2716 2.88582C22.87 2.33612 22.2689 1.96755 21.5987 1.86C20.9284 1.75245 20.243 1.91457 19.6909 2.31124C19.1389 2.7079 18.7646 3.30715 18.6493 3.97913C18.5339 4.6511 18.6868 5.34167 19.0748 5.90118L34.4 27.4321C35.0386 28.3303 35.4345 29.3796 35.5491 30.4775C35.6636 31.5753 35.4929 32.6843 35.0536 33.6961C34.6997 34.4793 34.5632 35.3441 34.6585 36.1989C34.7539 37.0537 35.0776 37.8667 35.5954 38.5517L63.9754 75.4273C64.1748 75.6892 64.3197 75.9887 64.4017 76.308C64.4837 76.6273 64.501 76.9598 64.4526 77.286C64.4042 77.6121 64.2912 77.9252 64.1201 78.2066C63.949 78.488 63.7234 78.732 63.4567 78.9241C63.1899 79.1163 62.8875 79.2526 62.5673 79.3251C62.2472 79.3977 61.9158 79.4048 61.5928 79.3462C61.2698 79.2876 60.9618 79.1644 60.6871 78.984C60.4124 78.8035 60.1766 78.5695 59.9936 78.2957L34.2796 39.5021C33.7982 38.79 33.1339 38.222 32.3572 37.8584C31.5804 37.4949 30.7202 37.3493 29.8678 37.4372C28.7699 37.5431 27.6635 37.3598 26.6576 36.9053C25.6518 36.4507 24.7811 35.7407 24.1316 34.8452L8.7978 13.3143C8.39618 12.7646 7.79512 12.396 7.12488 12.2885C6.45464 12.1809 5.76922 12.3431 5.21714 12.7397C4.66506 13.1364 4.2908 13.7356 4.17547 14.4076C4.06014 15.0796 4.21303 15.7702 4.601 16.3297L19.952 37.8605C21.1049 39.4653 22.6475 40.7468 24.4328 41.5831C26.2182 42.4195 28.1869 42.7828 30.1516 42.6385L55.7022 81.2161C56.2659 82.0733 56.9973 82.8064 57.8518 83.3708C58.7063 83.9352 59.6662 84.3192 60.673 84.4993C61.1325 84.5846 61.5989 84.628 62.0662 84.6289C63.4885 84.6282 64.8823 84.2272 66.0893 83.4712C67.2963 82.7153 68.2683 81.6346 68.8951 80.3519C69.5218 79.0691 69.7783 77.6356 69.6353 76.2139C69.4923 74.7921 68.9557 73.4391 68.0862 72.3082L39.8524 35.6314ZM28.0102 32.1754C28.4843 32.1744 28.949 32.0421 29.3532 31.7931C29.7573 31.5441 30.0854 31.188 30.3013 30.7639C30.5173 30.3399 30.6127 29.8642 30.5772 29.3893C30.5417 28.9143 30.3766 28.4583 30.1 28.0714L16.1078 7.9575C15.7155 7.3938 15.1164 7.00975 14.4422 6.88985C13.768 6.76995 13.0741 6.92401 12.513 7.31814C11.9519 7.71227 11.5696 8.31419 11.4503 8.99148C11.3309 9.66878 11.4843 10.366 11.8766 10.9297L25.8946 31.0436C26.1326 31.3853 26.4493 31.6643 26.8176 31.8569C27.1859 32.0494 27.595 32.1498 28.0102 32.1495V32.1754Z"/>
</mask>
<path d="M41.065 66.9169L31.9146 80.905C31.3147 81.8146 30.5416 82.5959 29.6397 83.2039C28.7379 83.8118 27.7252 84.2345 26.66 84.4474C26.1503 84.5501 25.6318 84.6021 25.112 84.6029C23.5788 84.608 22.0799 84.1472 20.812 83.281C19.926 82.6787 19.1721 81.9006 18.5966 80.9947C18.021 80.0887 17.636 79.0741 17.4652 78.0131C17.2945 76.9522 17.3415 75.8673 17.6035 74.8253C17.8655 73.7833 18.337 72.8062 18.9888 71.954L31.5878 55.538C32.012 54.9903 32.6355 54.6344 33.3209 54.5485C34.0063 54.4627 34.6977 54.6539 35.2428 55.0801C35.7879 55.5063 36.1422 56.1326 36.2277 56.8212C36.3132 57.5099 36.1228 58.2044 35.6986 58.7521L23.0996 75.1681C22.8779 75.4603 22.718 75.7949 22.6298 76.1515C22.5415 76.508 22.5267 76.8789 22.5863 77.2414C22.6459 77.6039 22.7787 77.9503 22.9764 78.2594C23.1741 78.5685 23.4326 78.8337 23.736 79.0388C24.3067 79.4149 25.0025 79.5485 25.671 79.4103C26.063 79.3312 26.4357 79.1752 26.7677 78.9514C27.0997 78.7275 27.3845 78.4401 27.606 78.1057L36.7564 64.0657C36.9298 63.7556 37.1649 63.4848 37.4471 63.2699C37.7292 63.0551 38.0523 62.9009 38.3963 62.8169C38.7403 62.7329 39.0978 62.7209 39.4466 62.7817C39.7954 62.8425 40.128 62.9748 40.4237 63.1703C40.7194 63.3658 40.9719 63.6203 41.1655 63.9181C41.3591 64.2158 41.4897 64.5504 41.549 64.9011C41.6084 65.2517 41.5953 65.6108 41.5105 65.9561C41.4258 66.3014 41.2712 66.6255 41.0564 66.9082L41.065 66.9169ZM77.0216 3.84486C73.5816 1.36518 68.9032 1.15782 63.9238 3.27462C58.9535 5.55612 54.6937 9.15177 51.6 13.6772C47.1194 19.993 45.0296 27.2593 46.01 33.1172C46.1938 34.2765 46.0904 35.4635 45.709 36.5732C45.5036 37.2201 45.5591 37.9221 45.8635 38.5283C46.168 39.1346 46.697 39.5966 47.3369 39.815C47.9769 40.0335 48.6766 39.9909 49.2856 39.6965C49.8946 39.4021 50.3644 38.8794 50.5938 38.2407C51.2515 36.3174 51.4258 34.2605 51.1012 32.2532C50.353 27.7863 52.159 21.8247 55.8054 16.7012C58.3495 12.9501 61.86 9.96376 65.962 8.06118C67.854 7.25766 71.423 6.19494 74.0546 8.06118C76.6862 9.92742 76.8496 13.6858 76.712 15.7421C76.2531 20.2621 74.5794 24.5717 71.8702 28.2097C68.2238 33.3937 63.1928 37.0138 58.7466 37.7569C56.7754 38.0833 54.9129 38.8869 53.32 40.0983C52.892 40.4275 52.4842 40.7824 52.0988 41.161C51.6357 41.6467 51.3787 42.2941 51.3819 42.9666C51.3851 43.6391 51.6484 44.284 52.1161 44.7652C52.5839 45.2463 53.2194 45.5259 53.8886 45.545C54.5577 45.5642 55.208 45.3212 55.7022 44.8676C55.9381 44.6363 56.1879 44.4199 56.4504 44.2196C57.3598 43.5168 58.425 43.0455 59.555 42.8458C65.36 41.8695 71.5606 37.5149 76.0412 31.1905C79.3035 26.7667 81.3044 21.5335 81.829 16.0532C82.1902 10.6359 80.4788 6.28998 77.0216 3.8103V3.84486ZM39.8524 35.6314C40.6175 33.8087 40.9054 31.8196 40.6887 29.8535C40.4719 27.8873 39.7577 26.0097 38.614 24.3994L23.2716 2.88582C22.87 2.33612 22.2689 1.96755 21.5987 1.86C20.9284 1.75245 20.243 1.91457 19.6909 2.31124C19.1389 2.7079 18.7646 3.30715 18.6493 3.97913C18.5339 4.6511 18.6868 5.34167 19.0748 5.90118L34.4 27.4321C35.0386 28.3303 35.4345 29.3796 35.5491 30.4775C35.6636 31.5753 35.4929 32.6843 35.0536 33.6961C34.6997 34.4793 34.5632 35.3441 34.6585 36.1989C34.7539 37.0537 35.0776 37.8667 35.5954 38.5517L63.9754 75.4273C64.1748 75.6892 64.3197 75.9887 64.4017 76.308C64.4837 76.6273 64.501 76.9598 64.4526 77.286C64.4042 77.6121 64.2912 77.9252 64.1201 78.2066C63.949 78.488 63.7234 78.732 63.4567 78.9241C63.1899 79.1163 62.8875 79.2526 62.5673 79.3251C62.2472 79.3977 61.9158 79.4048 61.5928 79.3462C61.2698 79.2876 60.9618 79.1644 60.6871 78.984C60.4124 78.8035 60.1766 78.5695 59.9936 78.2957L34.2796 39.5021C33.7982 38.79 33.1339 38.222 32.3572 37.8584C31.5804 37.4949 30.7202 37.3493 29.8678 37.4372C28.7699 37.5431 27.6635 37.3598 26.6576 36.9053C25.6518 36.4507 24.7811 35.7407 24.1316 34.8452L8.7978 13.3143C8.39618 12.7646 7.79512 12.396 7.12488 12.2885C6.45464 12.1809 5.76922 12.3431 5.21714 12.7397C4.66506 13.1364 4.2908 13.7356 4.17547 14.4076C4.06014 15.0796 4.21303 15.7702 4.601 16.3297L19.952 37.8605C21.1049 39.4653 22.6475 40.7468 24.4328 41.5831C26.2182 42.4195 28.1869 42.7828 30.1516 42.6385L55.7022 81.2161C56.2659 82.0733 56.9973 82.8064 57.8518 83.3708C58.7063 83.9352 59.6662 84.3192 60.673 84.4993C61.1325 84.5846 61.5989 84.628 62.0662 84.6289C63.4885 84.6282 64.8823 84.2272 66.0893 83.4712C67.2963 82.7153 68.2683 81.6346 68.8951 80.3519C69.5218 79.0691 69.7783 77.6356 69.6353 76.2139C69.4923 74.7921 68.9557 73.4391 68.0862 72.3082L39.8524 35.6314ZM28.0102 32.1754C28.4843 32.1744 28.949 32.0421 29.3532 31.7931C29.7573 31.5441 30.0854 31.188 30.3013 30.7639C30.5173 30.3399 30.6127 29.8642 30.5772 29.3893C30.5417 28.9143 30.3766 28.4583 30.1 28.0714L16.1078 7.9575C15.7155 7.3938 15.1164 7.00975 14.4422 6.88985C13.768 6.76995 13.0741 6.92401 12.513 7.31814C11.9519 7.71227 11.5696 8.31419 11.4503 8.99148C11.3309 9.66878 11.4843 10.366 11.8766 10.9297L25.8946 31.0436C26.1326 31.3853 26.4493 31.6643 26.8176 31.8569C27.1859 32.0494 27.595 32.1498 28.0102 32.1495V32.1754Z" fill="#FA8BAC" stroke="white" stroke-width="2" mask="url(#path-1-inside-1)"/>
</svg>
