<?xml version="1.0" encoding="utf-8"?>
<!-- Generator: Adobe Illustrator 24.1.0, SVG Export Plug-In . SVG Version: 6.00 Build 0)  -->
<svg version="1.1" id="Layer_1" xmlns="http://www.w3.org/2000/svg" xmlns:xlink="http://www.w3.org/1999/xlink" x="0px" y="0px"
	 viewBox="0 0 176.2 44.2" style="enable-background:new 0 0 176.2 44.2;" xml:space="preserve">
<style type="text/css">
	.st0{fill-rule:evenodd;clip-rule:evenodd;fill:#92CC7C;}
</style>
<g id="Layer_2_1_">
	<g id="Layer_1-2">
		<path class="st0" d="M49.2,1.7C48.8,2,48,1.9,47.5,1.9c-0.7,0-1.4,0.1-2.1,0.2c-0.8,0.3-1.6,0.5-2.4,0.7c-2.4,0-4.8-0.1-7.1,0.9
			c-0.3,0.1-0.8-0.1-1.2-0.2c-1.3-0.4-2.1,0.3-3,1.1l2.8,0.9c0,0.2-0.1,0.3-0.1,0.5c-1.6,0-3,0.4-4.8,0c-1.4-0.3-3.1,0.8-4.6,1.3
			l-0.5,2.3c-2.4,0.3-4.7,0.8-7.1,1c-3.7,0.4-7.4,0.8-11.2,0.8c-2.2,0.1-4.3,0.6-6.2,1.5l4.8,1l4.3,0.8c0,0.1,0,0.3,0,0.4l-3.6,1.3
			c2.2-0.1,3.7-0.1,5.1,1.2l-0.9,0.5c-0.2,0.1-0.5,0.3-1,0.5c3,0.9,5.9,0,8.6,1.5c-2.9,1.7-6.1,3-9.4,3.7c0.5,0.4,1.1,0.6,1.7,0.6
			c2-0.2,3.9-0.7,5.9-0.9c2.6-0.2,5.3-0.2,7.9-0.1c1.4,0.1,2.8,0.4,4.1,0.8c2.8,0.8,5.5,1.8,8.3,2.7c1.2,0.4,2.4,0.5,3.5,0.7
			c-0.4,0.7-1.1,1.2-1.9,1.5c-1.4,0.4-2.8,0.5-4.2,0.8c-0.7,0.2-1.8,0.3-2,0.8c-0.9,1.6-2.4,1.6-3.8,1.9c-2.3,0.4-4.6,0.7-6.9,1.1
			c-0.8,0.1-1.6,0.2-2.4,0.5c-0.4,0.2-0.6,0.8-0.9,1.2c0.3,0.3,0.7,0.5,1.1,0.7c0.7,0.2,1.6-0.3,2.4,0.7c-0.7,0.2-1.2,0.4-1.8,0.5
			c-2.3,0.5-4.5,1-6.8,1.7c-0.9,0.2-1.8,0.6-1.4,2.1c1.1,0.1,2.1,0,3.2-0.1c1.5-0.3,3.1-0.3,4.7,0.1c1.7,0.2,3.5,0.3,5.2,0.3
			c1.4,0,2.8-0.2,4.2-0.2c0.7,0,1.7,0.2,2,0.7c0.8,1.4,2.1,1.2,3.3,1.1c6.9-0.4,13.8-0.8,20.6-1.3c8.2-0.6,16.4-1.4,24.6-2.1
			c2.6-0.2,2.6-0.2,5.8,1.7c0.5,0.3,1,0.5,1.6,0.5c1.7-0.1,3.4-0.3,5.1-0.4c3.5-0.2,7.1-0.5,10.6-0.7c0.1,0,0.3,0.2,0.4,0.3
			l-0.7,1.2h2c-0.1-0.7-0.2-1.1-0.4-1.8c1,0,1.8-0.1,2.6-0.1c1.8,0.1,3.6,0.4,5.4,0.5c6.7,0.4,13.4,0.8,20.2,1.2
			c2.5,0.1,5,0,6.5,2.2c0.9-0.8,1.9-2,2.3-1.8c1.9,0.8,3.2-1,5.4-0.7c-2.6-2.5-5.7-3.8-6.3-7.2c1.6,0.2,3.2,0.1,4.4-1.3
			c-1.3-1.8-3.3-1.7-5.2-1.9c-2.3-0.3-4.7-0.5-7-0.7c0-0.2,0-0.3,0-0.5l4.3-0.6c3.4-0.5,6.7-2,10.2-1.6c0.7,0,1.5-0.2,2.1-0.5
			c1.3-0.6,1.4-1.8,0.5-3c-0.6-0.8-1.5-1.1-2.4-0.8c-1.5,0.3-3-0.1-4.2-1c0.6-0.2,1.2-0.4,1.9-0.5c0.3,0.6,1,0.8,1.6,0.5
			c0.2-0.1,0.3-0.2,0.4-0.4c1.3-1.5,3-1,4.6-1c3.1,0,6.3-0.1,9.4-0.1c0.5,0,1.2-0.1,1.4-0.4c1.2-1.7,3.3-1.3,4.9-2.3
			c0.3,0.5,0.5,0.9,0.9,1.3c0.7,1,1.8,1.5,3,1.3c2.2-0.4,4.3-1,6.4-1.5c-0.1-1.1-1.2-2-2.3-1.8c-1.7,0-2.7-1.1-4.4-2.2l3.8-0.5
			c-0.4-1.1-0.7-1.8-0.9-2.6c-0.1-0.8-0.8-1.3-1.5-1.4c-1.9-0.3-3.8-1-5.8-1.2c-5.9-0.7-11.8-1.8-17.7-2.8c-2.9-0.5-5.9-1.1-8.8-1.5
			c-2.1-0.3-4.3-0.3-6.4-0.7s-4.3,0.1-6-1.5c0,0-0.2,0-0.3,0c-2.1,0.8-4.2-0.3-6.4-0.2c-0.1,0-0.3-0.2-0.5-0.3l0.7-1.5
			c-1.3-0.6-1.3-0.5-2.5,0.1c-0.5,0.2-1.1,0.3-1.7,0.3c-1.3,0-2.6,0-3.8,0.1c-1.2,0.1-2.5-0.1-3.8-0.1c-3.4,0-6.8-0.1-10.3,0.1
			c-3.1,0.2-6.1,0.2-9.2,0c-2,0-4-0.2-5.9-0.3c-2.6-0.1-5.1-0.2-7.7-0.4c-2.1-0.1-4.3,0.5-6.2-0.6c-0.1,0-0.2,0-0.3,0
			c-2.2,0.7-4.4-0.1-6.6-0.2C61.1,0,60.5,0,59.9,0.1c-2.2,0.7-4.3,1.5-6.1,2.2C52.1,2,51,0.3,49.2,1.7z M46.6,39.1
			c-0.1,0.1-0.2,0.2-0.3,0.3c-0.1-0.1-0.2-0.2-0.3-0.3s0.1-0.2,0.2-0.2C46.3,39,46.4,39,46.6,39.1z M41.2,39.5l3.3-0.9
			C44,40.2,43.8,40.3,41.2,39.5z M61.5,34.6c0,0.1,0,0.1,0,0.2L60.1,35v-0.2L61.5,34.6z M21.7,38.7c-0.8,0.8-0.8,0.8-2,0.5
			C20.5,38.3,20.5,38.3,21.7,38.7z M98.3,42.1v0.5l-1.1-0.1c0-0.1,0-0.2,0-0.3L98.3,42.1z M28.7,31.3c0,0,0,0.1,0,0.1l-1.3,0.2
			c0,0,0-0.1,0-0.1L28.7,31.3z"/>
	</g>
</g>
</svg>
