<?xml version="1.0" encoding="utf-8"?>
<!-- Generator: Adobe Illustrator 24.1.0, SVG Export Plug-In . SVG Version: 6.00 Build 0)  -->
<svg version="1.1" id="Layer_1" xmlns="http://www.w3.org/2000/svg" xmlns:xlink="http://www.w3.org/1999/xlink" x="0px" y="0px"
	 viewBox="0 0 239.8 66.3" style="enable-background:new 0 0 239.8 66.3;" xml:space="preserve">
<style type="text/css">
	.st0{fill-rule:evenodd;clip-rule:evenodd;fill:#92CC7C;}
</style>
<g id="Layer_2_1_">
	<g id="Layer_1-2">
		<path class="st0" d="M165.8,3.9c0.1,0.4,0.3,0.8,0.4,1.1c-1.8,1.2-3.3,0.4-4.8-0.7L161,5.5c-2.1-0.7-3.9,1.5-6.3,0.4l1.5-2.4
			c-1.7,0.3-3.4,0.8-5,1.4c-1.8,0.8-3.6,1.5-5.4,2c-1.7,0.6-3.6,0.7-5.3,0.2c-0.4-0.1-0.7-0.1-1.1,0c-1,1.5,1.1,1.4,1.1,2.5h-2.9
			l-1.3-3.8c-1.4,0.1-2.7-0.1-3.6,0.4c-1.2,0.6-2.5,0.9-3.8,0.8c-1-0.1-1.9,0.5-2.2,1.4l3.5,0.4l0,0l0.2-0.1l1.3-0.9l0.2,0.4
			l-1.5,0.5l-0.2,0.1h-0.1c-0.1,0.9-0.9,1.5-1.8,1.4c-0.2,0-0.3-0.1-0.4-0.1c-1.3-0.5-2.4-1.3-3.4-2.2c-0.9-1.1-2.5-1.5-3.8-0.9
			c-0.1,2.1,1.3,3.5,2.2,5.2c-0.4,0.1-0.7,0.3-1,0.4c-2.3,0.6-2.8,0.3-4.2-1.8c-0.3-0.5-0.8-0.8-1.4-0.9c-2.1,0.2-3.8-0.9-5.5-1.8
			c-2.1,1.8-3.9,1.6-6-0.7l-1.8,1.1c-0.1-0.1-0.3-0.2-0.3-0.4c-0.2-0.6-0.6-1.2-1.2-0.7c-0.3,0.5-0.3,1-0.2,1.5
			c0.1,0.4,0.7,0.6,1.1,0.9c1.1,0.8,2.2,1.5,3.1,2.4c0.3,0.2,0.2,0.8,0.3,1.2l-0.4,0.3l-1.3-1.5c-0.9,2.4-2.7,0.1-3.7,0.9L98,10.9
			l-0.7,2.2c-1.5,0.2-3,0.2-4.5,0.2c-2.2-0.1-4.4-0.6-6.7-0.7c-1.2-0.1-1.9-0.4-2-1.7c0-0.1-0.3-0.3-0.5-0.4l-1.5,1.1
			c-1.1-0.6-2.1-1.6-2.8-1.4c-2.3,0.7-4.7,0.7-7,0.1c-1.5-0.4-3.3,0.1-4.9,0.1c-2.6,0-5.2,0.3-7.6-0.3c-2.9-0.7-5.7-0.2-8.4-0.9
			c-1.4,1.4-0.3,2.2,0.5,3c-0.8,1-2.1,1.6-3.4,1.6c-0.5,0-1.3,0.1-1.6,0.4c-0.5,0.8-1.5,1.2-2.4,0.9c-0.8-0.1-1.5,0-1.7,1l3.7,2.2
			c-2.3,0.7-4.8,0.8-7.1,0.3c-2.1-0.4-4.2-1.1-6.3-1.3c-0.9-0.1-2.3-0.5-3,0.7c0.1,0.2,0.2,0.3,0.2,0.4c2.4,0.7,5.3-0.6,7.4,1.5
			c2.3-0.1,4.4,1.3,6.8,1c1.5-0.2,3.2,0.8,4.8,1.2c0.8,0.2,1.5,0.5,2.3,0.6c1.7,0.3,3.4,0.1,5.3,1.3L53.5,25l4.2,0.9v0.6
			c-2.5,0.6-5.2-0.2-7.7,1l1.9,2.1l-0.3,0.8c-1.7-1.4-3.3-0.8-5-0.7c-2.3,0.1-3.2,1.6-4.5,3.6c-0.2-1-0.4-1.5-0.3-1.9
			c0.5-1.4-0.3-1.9-1.4-2.4c-1.8-0.7-3.5,0-5.1,0.3c0.6,1,1.2,1.9,2,2.8c1.4,1,2.1,2.7,1.8,4.5c-0.3,1.8,0.4,2.4,2.2,2.6
			c0.5,0,1,0,1.5,0.1c1,0.2,2.1,0.6,3.4,0.9c1.3-0.8,1.3-0.8,2.8,0.8c-1.4,0.5-2.8,1-4.3,1.2c-1.6,0-3.1-0.2-4.7-0.5
			c-0.6,0.9-1.5,1.7-1.7,2.7c-0.2,1.3-1,1.6-2,1.9c-1.5,0.7-3.2,0.9-4.9,0.6c-1-0.2-2.1,0.1-2.9,0.8c2,0.5,3.7,0.9,5.5,1.3
			c1.1,0.1,1.9,1,1.8,2c0,0.2,0,0.3-0.1,0.5c1.4-1.9,3-1.6,4.7-1.2c1.3,0.4,2.6,0.9,4,1.3c0.5,0.2,1,0.1,1.5-0.1
			c0.5-0.6,0-1-0.5-1.4c-0.2-0.1-0.4-0.4-0.8-1c0.6-0.1,1.3-0.1,1.9-0.1c2.5,0.3,5.1,0.6,7.6,0.8c1.1,0.1,2,0,2.3-1l5.8,0.9
			c-0.1,0.7-0.2,1-0.2,1.3l3,0.8c-0.8,1.9-2.1,1.4-3.2,1.1c-1.6-0.5-3.1-1.1-4.8-0.2c-0.5,0.3-1.4-0.1-2.1-0.4c-2-0.8-4-0.3-6.3-0.1
			c1,0.8,2.2,1.3,3.5,1.3c2.7,0.2,5.5,0.4,8.2,0.7c3.5,0.4,7.1,1,10.6,1.4c0.7-0.1,1.4-0.2,2-0.5l-3.2-1.7c-0.9-0.5-2.3,0.1-3.3-1.2
			c4.6-0.4,8.9-0.6,12.9,1.4c1,0.5,2.1,1,2.2,2.4c-1.3,0.3-2.6,0.1-3.7-0.6c-0.7-0.4-1.5-0.7-2.3-0.9c-0.3-0.1-0.8,0.3-1.2,0.5
			c0.3,0.4,0.4,1,0.8,1.1c4.2,1,8.2,2.7,12.7,1.4c0.7-0.1,1.5-0.1,2.2,0.1c0.8,0.1,1.6,0.3,2.5,0.5c0.8-1.5,1.7-2.1,3.2-1.1
			c0.9,0.5,1.9,0.8,2.9,1l2.5-1.2l0.3,0.4l-1,1.3c1.8,1,1.8,1,3.9-1c1.9,1.8,4.5,2.8,7.1,2.7c2.5,0.1,5.3,0.8,7.6-1.1
			c0.9,0.2,1.8,0.4,2.7,0.5c1.1,0,2.3,0,3.4-0.1l-1.1,1.5c5.8,0,11.4-1,17-1.4c0.3,0.5,0.6,1.1,0.9,1.9c0.6-0.4,1.2-0.7,1.8-1
			c1-0.5,2-0.8,3-1.1c2.2-0.4,4.4-0.6,6.6-0.9s4.4,0.5,6.6-0.3c0.4-0.2,1.3-0.2,1.4,0c1,1.7,2.4,0.7,3.6,0.5c1.6-0.3,3.2-1,4.8-1.2
			c1.2-0.2,2.7-0.5,3.6,0.1c1.7,1.1,3.3,0.8,5,0.8c0.7,0,1.4-0.3,2-0.1c1.9,0.9,3.7,0,5.5,0c3.1,0,6.3-0.4,9.4,0
			c3.9,0.5,7.7,1.5,11.5,2.3c0.4,0.1,0.8,0.3,1.2,0.5c0,0.1,0,0.2,0,0.4l-2.3,0.2c9.7,2.6,18.8,6.1,28.7,4.5v-2.6l-2.2-0.4
			c-0.1-0.6-0.1-1.1-0.1-1.6s-0.2-1-0.4-1.5c0.5-0.1,1-0.1,1.5-0.1c1.4,0.5,3,0.4,4.4-0.1c0.3-0.9,0.5-1.7,0.6-2.7
			c0-1.3-0.1-2.6-0.4-3.8c-0.1-0.5-0.9-0.8-1.4-1.3c-0.6-0.6-1.3-1.2-2.2-2c3.1-1,2.7-3.1,2.4-5.2c0.7-0.2,1.2-0.4,1.4-0.5l1.4-5.9
			c-0.4-0.9-1.7-2.5,0.3-4c-0.4-2-0.8-3.8-1.3-5.5c-0.3-1.3-0.8-2.5-1.6-3.6c-1.5-1.9-3.2-3.6-5.1-5.1c-6.4-4.2-13.2-7.7-20.4-10.5
			c-4.3-1.8-8.7-3.2-13.1-4.6c-3.2-1.1-6.4-2.7-9.9-1.4c-0.3,0.1-0.6-0.2-0.9-0.2c-2.6-0.2-5.2-1-7.4-0.1c-1.2-0.2-2.3-0.7-3.1-0.5
			c-2.6,0.7-5.1,0.9-7.6-0.3c-0.3-0.1-0.7-0.1-0.9,0.1C167.6,3,166.7,3.5,165.8,3.9z M39.3,32.1v-1.6h0.5L39.7,32L39.3,32.1z
			 M116.6,55.4l-0.9,0.4c-0.1-0.3-0.3-0.6-0.2-0.7c0.2-0.2,0.5-0.3,0.8-0.3C116.3,54.8,116.5,55.1,116.6,55.4z M114.5,54.6
			c-1,1.2-1.8,1.2-2.8,0.3C112.6,54.1,113.4,54.7,114.5,54.6z M98.9,54.7l-0.7,0.6c-0.1-0.2-0.4-0.3-0.4-0.5s0.2-0.4,0.3-0.7
			L98.9,54.7z M85.9,54.3c1,0.2,1,0.8,0.5,1.8c-0.8,0.1-1.5,0.1-2.3,0c-0.5,0-0.9-0.4-0.9-0.9c0-0.2,0.1-0.4,0.2-0.6
			C84.1,53.6,85.1,54.1,85.9,54.3L85.9,54.3z M45.5,46.7c-0.1,0.2-0.2,0.4-0.3,0.4c-0.2,0-0.5-0.1-0.7-0.1c0.1-0.2,0.2-0.5,0.3-0.5
			S45.3,46.6,45.5,46.7z M40.5,47.1l-1.9,0.3c0-0.4-0.1-0.7,0-0.8C39.1,46,39.6,46.1,40.5,47.1z M43.7,36.5c0.9,0.7,0.4,1.4-0.1,2.2
			c-1-0.4-1.5-1-1-1.9C42.9,36.5,43.3,36.4,43.7,36.5z M44.7,35.2l-3.1-0.4l3-2.1C44.5,33.6,44.6,34.3,44.7,35.2L44.7,35.2z
			 M35.6,22.2c-3.5,1.8-7.3,2.1-10.9,3.2l-0.7-2.7l-6.1-1.1c-0.3-0.5-0.2-1.1,0.3-1.4c0.2-0.1,0.4-0.2,0.6-0.2
			c0.8-0.2,1.6-0.2,2.5-0.1c2.5,0.3,5.1,0.6,7.6,0.9c0.8,0.1,1.6,0.1,2.4,0C32.8,20.5,34.4,21,35.6,22.2L35.6,22.2z M28.3,10.7
			c-1.6,0.3-3.2-0.1-4.5-1c-1.4-0.9-3-1.3-4.6-1.1c-1.9,0.1-3.7-0.2-5.5-0.8c0.8-0.2,1.7-0.3,2.5-0.4c3.9-0.1,7.8-0.1,11.6,0
			c1.3,0,2.7-0.3,3.5,1.2C31.4,9,32.2,9,32.7,9c0.9,0.1,1.7,0.1,2.6,0.2v0.2C32.9,9.8,30.6,10.3,28.3,10.7z M12.9,21.6
			C8.6,22,4.1,23,0,19.7c2.8-0.9,5.3,0,7.8,0.1s5.2-0.3,8,0.3C15.1,21.5,13.9,21.5,12.9,21.6z M27.1,31c0,0,0,0.1,0,0.1
			c-0.7,0-1.5-0.1-2.2-0.3c-0.4-0.1-0.9-0.5-1-0.9c0-0.5,0.3-0.9,0.7-1.1c1.4-0.3,2.7-0.5,4.1-0.5c0.4,0,1.1,0.8,1.1,1.3
			c0.2,0.8-0.4,1.4-1.3,1.4H27.1z M72.8,0.8l7.7,0.7c-0.6,0.7-0.8,1.3-1.2,1.3C77.5,3.2,75.3,2.5,72.8,0.8z M115.2,6.5
			c-2.2,0.1-4.4,0.6-6.3-0.9C111,5.2,113.2,5.5,115.2,6.5z M29.4,45.3c-1.5,0.5-2.6-0.2-3.7-1c0.2-1.2,0.8-1.5,1.7-1.3
			C28.4,43.2,29.2,44.2,29.4,45.3z M54.8,4.8l-5.5,0.3c-0.1-0.2-0.1-0.3-0.2-0.5c0.3-0.3,0.5-0.7,0.7-0.7c1.7-0.1,3.4-0.4,5,0.2
			L54.8,4.8z M62,4.5c-1.7,1.4-3.4,0.6-5.1,0.3C58.5,3.7,60.3,3.9,62,4.5z M27.1,47.5l-1.9-0.1c-0.5,0-1.1-0.1-2-0.1
			C25.9,45.3,26.5,45.4,27.1,47.5z M19.3,46.8c1-1.4,2-1,3.3-1.1C21.6,47.6,20.6,47,19.3,46.8z M37.2,41.5L33.6,42
			C35.1,40.6,35.3,40.6,37.2,41.5z M43.7,9.7c0-0.2-0.1-0.3-0.1-0.5l3.7-0.4l0.1,0.6C46.2,10.1,44.9,9.5,43.7,9.7z M47.3,4.1
			c-0.9,0.9-1.9,0.5-2.9,0.5l-0.1-0.5H47.3z M233.7,62.3c1.4-1.1,1.9-1.2,4.2-0.5L233.7,62.3z M28,39.9c-1.2,1-1.9,1-2.5,0.4
			l0.1-0.7L28,39.9z M21.5,23.5l-4.6,0.4c0-0.2,0-0.3,0-0.5h4.6L21.5,23.5z M117.7,7.9c-0.6-1.5-0.6-1.5,1.3-1.3L117.7,7.9z
			 M19.7,44.4l-2-1C19.6,43.1,19.6,43.1,19.7,44.4L19.7,44.4z M35,45.8l-0.8-1.3l0.5-0.4l1,1.2L35,45.8z M78.5,7.8
			c-0.1,0.6-0.3,1.1-0.4,1.7l-0.6-0.1c0.2-0.6,0.3-1.1,0.5-1.6L78.5,7.8z M32,41.1c0,0.1-0.1,0.3-0.1,0.4L30.3,41
			c0-0.2,0.1-0.3,0.1-0.5L32,41.1z M67.3,3.9l-2.1-0.4C66.2,2.7,66.7,3.1,67.3,3.9z M51,0l1.2,0.1v0.4l-1.2,0.1L51,0z M84.2,8.6
			c-0.3-0.1-0.5-0.1-0.8-0.3L83.6,8L85,8.2c0,0.1,0,0.2,0,0.3C84.8,8.6,84.5,8.6,84.2,8.6L84.2,8.6z M14.1,23.4L14,23.8l-1.7-0.5
			l0.1-0.4L14.1,23.4z M10.4,9.5l0.1,0.6H9.1V9.7L10.4,9.5z M119.4,10.7c0.2-0.1,0.5-0.2,0.7-0.3c0.1,0,0.2,0.3,0.3,0.5l-0.7,0.3
			C119.6,11,119.5,10.9,119.4,10.7L119.4,10.7z M21.8,28.5c0.1,0,0.1,0.2,0.2,0.4c-0.2,0-0.4-0.1-0.7-0.1c0,0,0-0.3,0-0.4
			C21.4,28.4,21.6,28.4,21.8,28.5z M63.7,4.8c0.1-0.1,0.2-0.3,0.2-0.3c0.2,0,0.4,0.1,0.7,0.2C64.4,4.8,64.3,5,64.3,5
			C64.1,5,63.8,4.9,63.7,4.8z M23.8,17c-0.1,0-0.2-0.1-0.4-0.2l0.6-0.9c0.1,0.4,0.3,0.6,0.3,0.8S24,17,23.8,17z M27.4,17.5
			c-0.2,0-0.4-0.1-0.6-0.1c0.1-0.2,0.1-0.5,0.2-0.5c0.2,0,0.4,0.1,0.6,0.2C27.5,17.3,27.4,17.5,27.4,17.5L27.4,17.5z M42.3,2.1
			c-0.2-0.1-0.3-0.2-0.5-0.3c0.2-0.1,0.3-0.2,0.4-0.2s0.2,0.1,0.3,0.2C42.5,1.9,42.3,2.1,42.3,2.1z M44.5,0.4
			c-0.2,0.1-0.4,0.3-0.4,0.2c-0.2-0.1-0.3-0.3-0.5-0.4C43.7,0.1,43.9,0,43.9,0C44.1,0.1,44.3,0.2,44.5,0.4z M21,16.6
			c-0.1,0-0.3-0.1-0.4-0.2c0.1-0.1,0.2-0.3,0.2-0.3c0.1,0,0.3,0.1,0.4,0.2C21.2,16.4,21.1,16.6,21,16.6z"/>
	</g>
</g>
</svg>
