<svg width="96" height="120" viewBox="0 0 96 120" fill="none" xmlns="http://www.w3.org/2000/svg">
<g clip-path="url(#clip0)">
<path d="M5.35137 69.7201L9.46137 66.0001L30.5314 85.0601L26.7214 88.5201C26.4223 88.7919 26.2127 89.1479 26.1199 89.5412C26.0272 89.9345 26.0558 90.3467 26.202 90.7234C26.3481 91.1002 26.605 91.4238 26.9387 91.6517C27.2724 91.8796 27.6673 92.0011 28.0714 92.0001C28.567 91.9988 29.0446 91.8135 29.4114 91.4801L34.8514 86.5501C35.0642 86.3624 35.2346 86.1316 35.3514 85.873C35.4681 85.6144 35.5285 85.3339 35.5285 85.0501C35.5285 84.7664 35.4681 84.4858 35.3514 84.2272C35.2346 83.9686 35.0642 83.7378 34.8514 83.5501L10.8014 61.8201C10.4333 61.4856 9.95374 61.3003 9.45637 61.3003C8.959 61.3003 8.47947 61.4856 8.11137 61.8201L2.67137 66.7601C2.27355 67.1155 2.03319 67.6144 2.00319 68.147C1.97318 68.6796 2.15598 69.2023 2.51137 69.6001C2.86676 69.9979 3.36563 70.2383 3.89823 70.2683C4.43084 70.2983 4.95355 70.1155 5.35137 69.7601V69.7201Z" fill="#FA8BAC" stroke="white" stroke-width="0.5"/>
<path d="M14.1314 62.8802C14.3684 62.994 14.6255 63.06 14.8881 63.0743C15.1506 63.0886 15.4133 63.0511 15.6613 62.9638C15.9093 62.8765 16.1377 62.7411 16.3333 62.5655C16.5289 62.3899 16.688 62.1774 16.8014 61.9402C16.8014 61.8602 20.8014 53.8002 28.9914 50.9402C34.1214 49.1702 39.8914 49.8302 46.1214 52.9402C46.3602 53.0532 46.6179 53.121 46.8814 53.1402L61.3814 54.0402H61.5014C61.9269 53.9796 62.3603 54.0111 62.7725 54.1325C63.1848 54.254 63.5661 54.4626 63.8906 54.7442C64.2152 55.0258 64.4755 55.3739 64.6539 55.7648C64.8323 56.1558 64.9246 56.5805 64.9246 57.0102C64.9246 57.4399 64.8323 57.8646 64.6539 58.2556C64.4755 58.6465 64.2152 58.9946 63.8906 59.2762C63.5661 59.5578 63.1848 59.7664 62.7725 59.8879C62.3603 60.0093 61.9269 60.0408 61.5014 59.9802H49.0114C48.7488 59.9802 48.4887 60.0319 48.2461 60.1324C48.0034 60.2329 47.7829 60.3803 47.5972 60.566C47.4115 60.7517 47.2642 60.9722 47.1637 61.2148C47.0632 61.4575 47.0114 61.7175 47.0114 61.9802C47.0114 62.2428 47.0632 62.5029 47.1637 62.7456C47.2642 62.9882 47.4115 63.2087 47.5972 63.3944C47.7829 63.5801 48.0034 63.7274 48.2461 63.828C48.4887 63.9285 48.7488 63.9802 49.0114 63.9802H61.5114C63.3757 63.9876 65.1811 63.3278 66.6014 62.1202L86.8214 51.6902H86.9214C87.2663 51.4558 87.6816 51.3476 88.0971 51.3841C88.5125 51.4205 88.9026 51.5993 89.2014 51.8902C89.6046 52.299 89.8703 52.8233 89.9614 53.3902C90.0601 53.9438 90.0092 54.5137 89.8141 55.041C89.6189 55.5684 89.2866 56.0341 88.8514 56.3902L62.8514 74.3902C60.3496 76.1744 57.3639 77.1545 54.2914 77.2002L35.1114 76.2902C34.5857 76.2628 34.0705 76.4438 33.6773 76.7938C33.2842 77.1439 33.0449 77.6349 33.0114 78.1602C32.987 78.6891 33.1732 79.2061 33.5294 79.5979C33.8856 79.9897 34.3826 80.2243 34.9114 80.2502L54.1914 81.1502C58.1049 81.1253 61.9164 79.9002 65.1114 77.6402L91.1114 59.6402C92.1852 58.8408 93.0138 57.7568 93.5034 56.5108C93.9929 55.2649 94.1239 53.9067 93.8814 52.5902C93.6431 51.2293 92.99 49.9754 92.0114 49.0002C91.1004 48.0833 89.9062 47.5014 88.6227 47.3489C87.3392 47.1964 86.0419 47.4823 84.9414 48.1602L69.0114 56.3902C68.784 54.5923 67.8968 52.9431 66.5221 51.7623C65.1473 50.5816 63.383 49.9536 61.5714 50.0002L47.5214 49.1202C40.4314 45.7202 33.7614 45.0502 27.6914 47.1202C17.9314 50.4902 13.3814 59.7502 13.1914 60.1202C13.0632 60.3614 12.9858 60.6264 12.9639 60.8987C12.9421 61.171 12.9762 61.445 13.0643 61.7036C13.1524 61.9622 13.2925 62.2 13.476 62.4024C13.6596 62.6047 13.8826 62.7673 14.1314 62.8802V62.8802Z" fill="#FA8BAC" stroke="white" stroke-width="0.5"/>
<path d="M48.0114 42.0001C48.7864 42.0015 49.5535 41.8443 50.2654 41.5382C50.9774 41.2321 51.6192 40.7835 52.1514 40.2201C59.8414 32.2201 69.0114 21.2201 69.0114 14.6701C69.0114 5.90007 63.3714 7.01965e-05 55.0114 7.01965e-05C52.5359 -0.0080321 50.1089 0.685415 48.0114 2.00007C45.9139 0.685415 43.4868 -0.0080321 41.0114 7.01965e-05C32.6514 7.01965e-05 27.0114 5.90007 27.0114 14.6701C27.0114 21.2301 36.1814 32.1801 43.8714 40.2201C44.4035 40.7835 45.0453 41.2321 45.7573 41.5382C46.4693 41.8443 47.2364 42.0015 48.0114 42.0001V42.0001ZM41.0114 4.00007C43.093 3.99704 45.1137 4.70236 46.7414 6.00007C47.0944 6.27909 47.5313 6.43087 47.9814 6.43087C48.4314 6.43087 48.8683 6.27909 49.2214 6.00007C50.865 4.68942 52.9092 3.98334 55.0114 4.00007C59.8614 4.00007 65.0114 6.80007 65.0114 14.6701C65.0114 18.5701 59.0114 27.3001 49.2614 37.4501C49.0998 37.6189 48.9058 37.7532 48.691 37.845C48.4762 37.9368 48.245 37.9841 48.0114 37.9841C47.7777 37.9841 47.5465 37.9368 47.3317 37.845C47.1169 37.7532 46.9229 37.6189 46.7614 37.4501C37.0114 27.3001 31.0114 18.5701 31.0114 14.6701C31.0114 6.80007 36.1914 4.00007 41.0114 4.00007Z" fill="#FA8BAC" stroke="white" stroke-width="0.5"/>
</g>
<defs>
<clipPath id="clip0">
<rect width="96" height="120" fill="white"/>
</clipPath>
</defs>
</svg>
